<?xml version="1.0" encoding="UTF-8" standalone="no"?>
<!-- Created with Inkscape (http://www.inkscape.org/) -->

<svg
   width="210mm"
   height="297mm"
   viewBox="0 0 210 297"
   version="1.1"
   id="svg1"
   xml:space="preserve"
   inkscape:version="1.3.2 (091e20e, 2023-11-25, custom)"
   sodipodi:docname="Carrot.svg"
   xmlns:inkscape="http://www.inkscape.org/namespaces/inkscape"
   xmlns:sodipodi="http://sodipodi.sourceforge.net/DTD/sodipodi-0.dtd"
   xmlns="http://www.w3.org/2000/svg"
   xmlns:svg="http://www.w3.org/2000/svg"><sodipodi:namedview
     id="namedview1"
     pagecolor="#ffffff"
     bordercolor="#000000"
     borderopacity="0.25"
     inkscape:showpageshadow="2"
     inkscape:pageopacity="0.0"
     inkscape:pagecheckerboard="0"
     inkscape:deskcolor="#d1d1d1"
     inkscape:document-units="px"
     showborder="false"
     inkscape:zoom="2.1626574"
     inkscape:cx="326.68143"
     inkscape:cy="389.33583"
     inkscape:window-width="1368"
     inkscape:window-height="842"
     inkscape:window-x="-6"
     inkscape:window-y="-6"
     inkscape:window-maximized="1"
     inkscape:current-layer="svg1" /><defs
     id="defs1"><rect
       x="161.01094"
       y="162.52991"
       width="126.07461"
       height="118.47975"
       id="rect1" /></defs><g
     inkscape:groupmode="layer"
     id="layer2"
     inkscape:label="Carrot" /><g
     id="g13"><g
       id="g2"
       transform="translate(3.4101875,-11.935656)"><g
         inkscape:groupmode="layer"
         id="layer5"
         inkscape:label="Carrot 3"><rect
           style="fill:#92bc41;fill-opacity:1;stroke:#000000;stroke-width:0.529167;stroke-linejoin:round"
           id="rect2"
           width="1.8471849"
           height="7.104557"
           x="-85.321457"
           y="86.365929"
           transform="rotate(-74.687675)" /></g><g
         inkscape:groupmode="layer"
         id="layer3"
         inkscape:label="Carrot 1"><path
           style="fill:#ee881a;fill-opacity:1;stroke:#000000;stroke-width:0.529167;stroke-linejoin:round"
           d="m 66.356563,105.8579 c 0,0 -4.973188,6.53619 38.364607,7.9571 0,0 -37.796245,-14.635382 -38.364607,-7.9571 z"
           id="path1" /></g><g
         inkscape:groupmode="layer"
         id="layer4"
         inkscape:label="Carrot 2"><path
           style="fill:#92bc41;fill-opacity:1;stroke:#000000;stroke-width:0.529167;stroke-linejoin:round"
           d="m 63.230559,102.02144 c 0,0 -1.847184,-3.268095 -4.404826,-2.841822 0,0 -4.262733,-3.836459 -5.683644,2e-6 0,0 -8.66756,-4.120643 -5.825737,1.42091 0,0 -6.962466,3.2681 0,4.68901 0,0 0.710456,4.54691 6.394101,1.98927 0,0 0.994639,4.54692 5.257373,2.27346 0,0 5.541552,-1.563 4.262733,-7.53083 z"
           id="path2" /></g></g><path
       style="fill:none;fill-opacity:1;stroke:#c06a0e;stroke-width:0.26458333;stroke-linejoin:round;stroke-opacity:1;stroke-dasharray:none"
       d="m 74.447011,92.986837 c 0,0 -1.621197,0.99997 -1.080798,2.599928"
       id="path3" /><path
       style="fill:none;fill-opacity:1;stroke:#c06a0e;stroke-width:0.26458333;stroke-linejoin:round;stroke-opacity:1;stroke-dasharray:none"
       d="m 76.562166,93.741881 c 0,0 -1.507106,1.004734 -1.004737,2.612313"
       id="path4" /><path
       style="fill:none;fill-opacity:1;stroke:#c06a0e;stroke-width:0.26458333;stroke-linejoin:round;stroke-opacity:1;stroke-dasharray:none"
       d="m 80.21528,93.940394 c 0,0 -2.710073,1.251827 -1.806714,3.254756"
       id="path5" /><path
       style="fill:none;fill-opacity:1;stroke:#c06a0e;stroke-width:0.26458333;stroke-linejoin:round;stroke-opacity:1;stroke-dasharray:none"
       d="m 81.585847,94.746617 c 0,0 -1.507106,1.004734 -1.004737,2.612313"
       id="path6" /><path
       style="fill:none;fill-opacity:1;stroke:#c06a0e;stroke-width:0.26458333;stroke-linejoin:round;stroke-opacity:1;stroke-dasharray:none"
       d="m 84.652899,95.020374 c 0,0 -2.503843,1.149786 -1.669228,2.98945"
       id="path7" /><path
       style="fill:none;fill-opacity:1;stroke:#c06a0e;stroke-width:0.26458333;stroke-linejoin:round;stroke-opacity:1;stroke-dasharray:none"
       d="m 86.107159,95.851827 c 0,0 -1.507106,1.004734 -1.004737,2.612313"
       id="path8" /><path
       style="fill:none;fill-opacity:1;stroke:#c06a0e;stroke-width:0.26458333;stroke-linejoin:round;stroke-opacity:1;stroke-dasharray:none"
       d="m 88.518525,96.354194 c 0,0 -1.507106,1.004734 -1.004737,2.612313"
       id="path9" /><path
       style="fill:none;fill-opacity:1;stroke:#c06a0e;stroke-width:0.26458333;stroke-linejoin:round;stroke-opacity:1;stroke-dasharray:none"
       d="m 90.527998,96.655615 c 0,0 -1.507106,1.004734 -1.004737,2.612313"
       id="path10" /><path
       style="fill:none;fill-opacity:1;stroke:#c06a0e;stroke-width:0.26458333;stroke-linejoin:round;stroke-opacity:1;stroke-dasharray:none"
       d="m 93.240786,97.157983 c 0,0 -1.507106,1.004734 -1.004737,2.612316"
       id="path11" /><path
       style="fill:none;fill-opacity:1;stroke:#c06a0e;stroke-width:0.26458333;stroke-linejoin:round;stroke-opacity:1;stroke-dasharray:none"
       d="m 95.652153,97.760825 c 0,0 -1.507106,1.004734 -1.004737,2.612315"
       id="path12" /><path
       style="fill:none;fill-opacity:1;stroke:#c06a0e;stroke-width:0.26458333;stroke-linejoin:round;stroke-opacity:1;stroke-dasharray:none"
       d="m 97.38879,98.622753 c 0,0 -1.082387,0.875751 -0.721591,2.276957"
       id="path13" /></g></svg>
