<?xml version="1.0" encoding="UTF-8" standalone="no"?>
<!-- Created with Inkscape (http://www.inkscape.org/) -->

<svg
   width="210mm"
   height="297mm"
   viewBox="0 0 210 297"
   version="1.1"
   id="svg1"
   xml:space="preserve"
   inkscape:version="1.3.2 (091e20e, 2023-11-25, custom)"
   sodipodi:docname="ColorPalette.svg"
   xmlns:inkscape="http://www.inkscape.org/namespaces/inkscape"
   xmlns:sodipodi="http://sodipodi.sourceforge.net/DTD/sodipodi-0.dtd"
   xmlns="http://www.w3.org/2000/svg"
   xmlns:svg="http://www.w3.org/2000/svg"><sodipodi:namedview
     id="namedview1"
     pagecolor="#ffffff"
     bordercolor="#000000"
     borderopacity="0.25"
     inkscape:showpageshadow="2"
     inkscape:pageopacity="0.0"
     inkscape:pagecheckerboard="0"
     inkscape:deskcolor="#d1d1d1"
     inkscape:document-units="mm"
     inkscape:zoom="0.76095324"
     inkscape:cx="289.76813"
     inkscape:cy="604.50495"
     inkscape:window-width="1368"
     inkscape:window-height="842"
     inkscape:window-x="-6"
     inkscape:window-y="-6"
     inkscape:window-maximized="1"
     inkscape:current-layer="layer1" /><defs
     id="defs1" /><g
     inkscape:label="Layer 1"
     inkscape:groupmode="layer"
     id="layer1"><g
       id="g21"
       inkscape:label="ColorPalette"><path
         id="rect19"
         style="display:inline;fill:#ffd700;stroke-width:2.11667;stroke-linecap:round"
         d="m 20.415939,157.16034 h 19.375 v 54.93657 h -19.375 z"
         inkscape:label="Gold" /><path
         id="rect12"
         style="display:inline;fill:#bf2231;stroke-width:2.11667;stroke-linecap:round"
         d="m 39.790939,157.16034 h 19.375 c 0,0 0,0 0,0 v 54.93657 c 0,0 0,0 0,0 h -19.375 c 0,0 0,0 0,0 v -54.93657 c 0,0 0,0 0,0 z"
         inkscape:label="Red" /><path
         id="rect13"
         style="display:inline;fill:#4cc9f0;stroke-width:2.11667;stroke-linecap:round"
         d="m 59.165939,157.16034 h 19.375 c 0,0 0,0 0,0 v 54.93657 c 0,0 0,0 0,0 h -19.375 c 0,0 0,0 0,0 v -54.93657 c 0,0 0,0 0,0 z"
         inkscape:label="LightBlue" /><path
         id="rect14"
         style="display:inline;fill:#2a11a7;stroke-width:2.11667;stroke-linecap:round"
         d="m 78.540939,157.16034 h 19.375 c 0,0 0,0 0,0 v 54.93657 c 0,0 0,0 0,0 h -19.375 c 0,0 0,0 0,0 v -54.93657 c 0,0 0,0 0,0 z"
         inkscape:label="DarkBlue" /><path
         id="rect15"
         style="display:inline;fill:#f1efb8;stroke-width:2.11667;stroke-linecap:round"
         d="m 97.915939,157.16034 h 19.375001 c 0,0 0,0 0,0 v 54.93657 c 0,0 0,0 0,0 H 97.915939 c 0,0 0,0 0,0 v -54.93657 c 0,0 0,0 0,0 z"
         inkscape:label="Beige" /><path
         id="rect16"
         style="display:inline;fill:#8c8c8c;stroke-width:2.11667;stroke-linecap:round"
         d="m 117.29094,157.16034 h 19.375 c 0,0 0,0 0,0 v 54.93657 c 0,0 0,0 0,0 h -19.375 c 0,0 0,0 0,0 v -54.93657 c 0,0 0,0 0,0 z"
         inkscape:label="Grey" /><path
         id="rect17"
         style="display:inline;stroke-width:2.11667;stroke-linecap:round"
         d="m 136.66594,157.16034 h 19.375 c 0,0 0,0 0,0 v 54.93657 c 0,0 0,0 0,0 h -19.375 c 0,0 0,0 0,0 v -54.93657 c 0,0 0,0 0,0 z"
         inkscape:label="Black" /><path
         id="rect18"
         style="display:inline;fill:#ffffff;stroke-width:2.11667;stroke-linecap:round"
         d="m 156.04094,157.16034 h 19.375 c 0,0 0,0 0,0 v 54.93657 c 0,0 0,0 0,0 h -19.375 c 0,0 0,0 0,0 v -54.93657 c 0,0 0,0 0,0 z"
         inkscape:label="White" /><path
         id="rect2"
         style="fill:none;stroke:#000000;stroke-width:2.11667;stroke-linecap:round"
         d="M 21.209692,157.16034 H 174.09302 v 54.93658 H 21.209692 Z"
         inkscape:label="Outer" /></g></g></svg>
