<?xml version="1.0" encoding="UTF-8" standalone="no"?>
<!-- Created with Inkscape (http://www.inkscape.org/) -->

<svg
   width="210mm"
   height="297mm"
   viewBox="0 0 210 297"
   version="1.1"
   id="svg1"
   xml:space="preserve"
   inkscape:version="1.3.2 (091e20e, 2023-11-25, custom)"
   sodipodi:docname="HandleScroll.svg"
   xmlns:inkscape="http://www.inkscape.org/namespaces/inkscape"
   xmlns:sodipodi="http://sodipodi.sourceforge.net/DTD/sodipodi-0.dtd"
   xmlns="http://www.w3.org/2000/svg"
   xmlns:svg="http://www.w3.org/2000/svg"><sodipodi:namedview
     id="namedview1"
     pagecolor="#ffffff"
     bordercolor="#000000"
     borderopacity="0.25"
     inkscape:showpageshadow="2"
     inkscape:pageopacity="0.0"
     inkscape:pagecheckerboard="0"
     inkscape:deskcolor="#d1d1d1"
     inkscape:document-units="mm"
     inkscape:zoom="0.5380752"
     inkscape:cx="347.53507"
     inkscape:cy="74.339052"
     inkscape:window-width="1368"
     inkscape:window-height="842"
     inkscape:window-x="-6"
     inkscape:window-y="-6"
     inkscape:window-maximized="1"
     inkscape:current-layer="layer20" /><defs
     id="defs1" /><g
     inkscape:groupmode="layer"
     id="layer22"
     inkscape:label="Layer 5" /><g
     inkscape:groupmode="layer"
     id="layer20"
     inkscape:label="Layer 4"><g
       id="g21"><path
         style="opacity:1;fill:#f1efb8;fill-opacity:1;stroke:#000000;stroke-width:2.11667;stroke-linecap:round;stroke-linejoin:round;stroke-dasharray:none"
         d="m 26.07749,58.413575 c 0,0 21.406131,71.678695 0,180.456235 h 153.33563 c -22.30829,-108.77755 0,-180.456234 0,-180.456234 l -153.33563,-10e-7"
         id="path10"
         sodipodi:nodetypes="ccccc" /><g
         id="g5"><path
           id="rect1"
           style="opacity:1;fill:#f1efb8;stroke:#000000;stroke-width:2.11667;stroke-linecap:round;stroke-linejoin:round"
           d="M 28.946007,45.896381 H 176.5446 c 1.58916,0 2.86852,1.279359 2.86852,2.868518 v 19.297354 c 0,1.589159 -1.27936,2.868518 -2.86852,2.868518 H 28.946007 c -1.589158,0 -2.868517,-1.279359 -2.868517,-2.868518 V 48.764899 c 0,-1.589159 1.279359,-2.868518 2.868517,-2.868518 z" /><path
           id="path5"
           style="opacity:1;fill:#ffd700;stroke:#000000;stroke-width:2.11667;stroke-linecap:round;stroke-linejoin:round"
           d="m 199.39515,47.80873 c -5.85689,0 -15.47264,10.604846 -15.47264,10.604846 0,0 9.61575,10.604845 15.47264,10.604845 5.8569,0 10.60485,-4.747951 10.60485,-10.604845 0,-5.856895 -4.74795,-10.604846 -10.60485,-10.604846 z"
           sodipodi:nodetypes="scsss" /><path
           id="path4"
           style="opacity:1;fill:#ffd700;stroke:#000000;stroke-width:2.11667;stroke-linecap:round;stroke-linejoin:round"
           d="m 5.9109168,47.80873 c 5.8568952,0 15.4726442,10.604846 15.4726442,10.604846 0,0 -9.615749,10.604845 -15.4726442,10.604845 -5.85689534,0 -10.6048463,-4.747951 -10.6048463,-10.604845 0,-5.856895 4.74795096,-10.604846 10.6048463,-10.604846 z"
           sodipodi:nodetypes="scsss" /><path
           id="rect3"
           style="opacity:1;fill:#ffd700;stroke:#000000;stroke-width:2.11667;stroke-linecap:round;stroke-linejoin:round"
           d="m 22.307763,43.53899 h 0.90121 c 1.589159,0 2.868517,1.279359 2.868517,2.868517 v 24.012136 c 0,1.589159 -1.279358,2.868517 -2.868517,2.868517 h -0.90121 c -1.589159,0 -2.868518,-1.279358 -2.868518,-2.868517 V 46.407507 c 0,-1.589158 1.279359,-2.868517 2.868518,-2.868517 z" /><path
           id="rect4"
           style="opacity:1;fill:#ffd700;stroke:#000000;stroke-width:2.11667;stroke-linecap:round;stroke-linejoin:round"
           d="m 182.28163,43.53899 h 0.90121 c 1.58916,0 2.86852,1.279359 2.86852,2.868517 v 24.012136 c 0,1.589159 -1.27936,2.868517 -2.86852,2.868517 h -0.90121 c -1.58915,0 -2.86851,-1.279358 -2.86851,-2.868517 V 46.407507 c 0,-1.589158 1.27936,-2.868517 2.86851,-2.868517 z" /></g><g
         id="g8"
         transform="translate(0,180.45623)"><path
           id="rect5"
           style="opacity:1;fill:#f1efb8;stroke:#000000;stroke-width:2.11667;stroke-linecap:round;stroke-linejoin:round"
           d="M 28.946007,45.896381 H 176.5446 c 1.58916,0 2.86852,1.279359 2.86852,2.868518 v 19.297354 c 0,1.589159 -1.27936,2.868518 -2.86852,2.868518 H 28.946007 c -1.589158,0 -2.868517,-1.279359 -2.868517,-2.868518 V 48.764899 c 0,-1.589159 1.279359,-2.868518 2.868517,-2.868518 z" /><path
           id="path6"
           style="opacity:1;fill:#ffd700;stroke:#000000;stroke-width:2.11667;stroke-linecap:round;stroke-linejoin:round"
           d="m 199.39515,47.80873 c -5.85689,0 -15.47264,10.604846 -15.47264,10.604846 0,0 9.61575,10.604845 15.47264,10.604845 5.8569,0 10.60485,-4.747951 10.60485,-10.604845 0,-5.856895 -4.74795,-10.604846 -10.60485,-10.604846 z"
           sodipodi:nodetypes="scsss" /><path
           id="path7"
           style="opacity:1;fill:#ffd700;stroke:#000000;stroke-width:2.11667;stroke-linecap:round;stroke-linejoin:round"
           d="m 5.9109168,47.80873 c 5.8568952,0 15.4726442,10.604846 15.4726442,10.604846 0,0 -9.615749,10.604845 -15.4726442,10.604845 -5.85689534,0 -10.6048463,-4.747951 -10.6048463,-10.604845 0,-5.856895 4.74795096,-10.604846 10.6048463,-10.604846 z"
           sodipodi:nodetypes="scsss" /><path
           id="rect7"
           style="opacity:1;fill:#ffd700;stroke:#000000;stroke-width:2.11667;stroke-linecap:round;stroke-linejoin:round"
           d="m 22.307763,43.53899 h 0.90121 c 1.589159,0 2.868517,1.279359 2.868517,2.868517 v 24.012136 c 0,1.589159 -1.279358,2.868517 -2.868517,2.868517 h -0.90121 c -1.589159,0 -2.868518,-1.279358 -2.868518,-2.868517 V 46.407507 c 0,-1.589158 1.279359,-2.868517 2.868518,-2.868517 z" /><path
           id="rect8"
           style="opacity:1;fill:#ffd700;stroke:#000000;stroke-width:2.11667;stroke-linecap:round;stroke-linejoin:round"
           d="m 182.28163,43.53899 h 0.90121 c 1.58916,0 2.86852,1.279359 2.86852,2.868517 v 24.012136 c 0,1.589159 -1.27936,2.868517 -2.86852,2.868517 h -0.90121 c -1.58915,0 -2.86851,-1.279358 -2.86851,-2.868517 V 46.407507 c 0,-1.589158 1.27936,-2.868517 2.86851,-2.868517 z" /></g></g><g
       id="g20"
       transform="translate(193.73841,25.077815)"><g
         id="g14"
         transform="translate(-198.88432,-124.12885)"><path
           id="rect12"
           style="opacity:1;fill:#f1efb8;stroke:#000000;stroke-width:2.30393;stroke-linecap:round;stroke-linejoin:round"
           d="M 29.573785,43.777264 H 175.91683 c 1.88507,0 3.40266,1.517589 3.40266,3.402666 v 22.890735 c 0,1.885077 -1.51759,3.402666 -3.40266,3.402666 H 29.573785 c -1.885078,0 -3.402667,-1.517589 -3.402667,-3.402666 V 47.17993 c 0,-1.885077 1.517589,-3.402666 3.402667,-3.402666 z" /><path
           id="path12"
           style="opacity:1;fill:#ffd700;stroke:#000000;stroke-width:2.11667;stroke-linecap:round;stroke-linejoin:round"
           d="m 199.39515,48.020452 c -5.85689,0 -15.47264,10.604846 -15.47264,10.604846 0,0 9.61575,10.604845 15.47264,10.604845 5.8569,0 10.60485,-4.747951 10.60485,-10.604845 0,-5.856895 -4.74795,-10.604846 -10.60485,-10.604846 z"
           sodipodi:nodetypes="scsss" /><path
           id="path13"
           style="opacity:1;fill:#ffd700;stroke:#000000;stroke-width:2.11667;stroke-linecap:round;stroke-linejoin:round"
           d="m 5.9109168,48.020452 c 5.8568952,0 15.4726442,10.604846 15.4726442,10.604846 0,0 -9.615749,10.604845 -15.4726442,10.604845 -5.85689534,0 -10.6048463,-4.747951 -10.6048463,-10.604845 0,-5.856895 4.74795096,-10.604846 10.6048463,-10.604846 z"
           sodipodi:nodetypes="scsss" /><path
           id="rect13"
           style="opacity:1;fill:#ffd700;stroke:#000000;stroke-width:2.12066;stroke-linecap:round;stroke-linejoin:round"
           d="m 22.322309,43.685627 h 0.872119 c 1.596112,0 2.881069,1.284957 2.881069,2.881069 v 24.117203 c 0,1.596112 -1.284957,2.881069 -2.881069,2.881069 h -0.872119 c -1.596112,0 -2.881069,-1.284957 -2.881069,-2.881069 V 46.566696 c 0,-1.596112 1.284957,-2.881069 2.881069,-2.881069 z" /><path
           id="rect14"
           style="opacity:1;fill:#ffd700;stroke:#000000;stroke-width:2.12066;stroke-linecap:round;stroke-linejoin:round"
           d="m 182.29618,43.685627 h 0.87212 c 1.59612,0 2.88107,1.284957 2.88107,2.881069 v 24.117203 c 0,1.596112 -1.28495,2.881069 -2.88107,2.881069 h -0.87212 c -1.59611,0 -2.88106,-1.284957 -2.88106,-2.881069 V 46.566696 c 0,-1.596112 1.28495,-2.881069 2.88106,-2.881069 z" /></g><g
         id="g19"
         transform="translate(-198.88432,-93.966196)"><path
           id="rect17"
           style="opacity:1;fill:#f1efb8;stroke:#000000;stroke-width:2.30393;stroke-linecap:round;stroke-linejoin:round"
           d="M 29.573785,43.777264 H 175.91683 c 1.88507,0 3.40266,1.517589 3.40266,3.402666 v 22.890735 c 0,1.885077 -1.51759,3.402666 -3.40266,3.402666 H 29.573785 c -1.885078,0 -3.402667,-1.517589 -3.402667,-3.402666 V 47.17993 c 0,-1.885077 1.517589,-3.402666 3.402667,-3.402666 z" /><path
           id="path17"
           style="opacity:1;fill:#ffd700;stroke:#000000;stroke-width:2.11667;stroke-linecap:round;stroke-linejoin:round"
           d="m 199.39515,48.020452 c -5.85689,0 -15.47264,10.604846 -15.47264,10.604846 0,0 9.61575,10.604845 15.47264,10.604845 5.8569,0 10.60485,-4.747951 10.60485,-10.604845 0,-5.856895 -4.74795,-10.604846 -10.60485,-10.604846 z"
           sodipodi:nodetypes="scsss" /><path
           id="path18"
           style="opacity:1;fill:#ffd700;stroke:#000000;stroke-width:2.11667;stroke-linecap:round;stroke-linejoin:round"
           d="m 5.9109168,48.020452 c 5.8568952,0 15.4726442,10.604846 15.4726442,10.604846 0,0 -9.615749,10.604845 -15.4726442,10.604845 -5.85689534,0 -10.6048463,-4.747951 -10.6048463,-10.604845 0,-5.856895 4.74795096,-10.604846 10.6048463,-10.604846 z"
           sodipodi:nodetypes="scsss" /><path
           id="rect18"
           style="opacity:1;fill:#ffd700;stroke:#000000;stroke-width:2.12066;stroke-linecap:round;stroke-linejoin:round"
           d="m 22.322309,43.685627 h 0.872119 c 1.596112,0 2.881069,1.284957 2.881069,2.881069 v 24.117203 c 0,1.596112 -1.284957,2.881069 -2.881069,2.881069 h -0.872119 c -1.596112,0 -2.881069,-1.284957 -2.881069,-2.881069 V 46.566696 c 0,-1.596112 1.284957,-2.881069 2.881069,-2.881069 z" /><path
           id="rect19"
           style="opacity:1;fill:#ffd700;stroke:#000000;stroke-width:2.12066;stroke-linecap:round;stroke-linejoin:round"
           d="m 182.29618,43.685627 h 0.87212 c 1.59612,0 2.88107,1.284957 2.88107,2.881069 v 24.117203 c 0,1.596112 -1.28495,2.881069 -2.88107,2.881069 h -0.87212 c -1.59611,0 -2.88106,-1.284957 -2.88106,-2.881069 V 46.566696 c 0,-1.596112 1.28495,-2.881069 2.88106,-2.881069 z" /></g></g></g></svg>
