<?xml version="1.0" encoding="UTF-8" standalone="no"?>
<!-- Created with Inkscape (http://www.inkscape.org/) -->

<svg
   width="210mm"
   height="297mm"
   viewBox="0 0 210 297"
   version="1.1"
   id="svg1"
   xml:space="preserve"
   inkscape:version="1.3.2 (091e20e, 2023-11-25, custom)"
   sodipodi:docname="HelmetIcon.svg"
   xmlns:inkscape="http://www.inkscape.org/namespaces/inkscape"
   xmlns:sodipodi="http://sodipodi.sourceforge.net/DTD/sodipodi-0.dtd"
   xmlns="http://www.w3.org/2000/svg"
   xmlns:svg="http://www.w3.org/2000/svg"><sodipodi:namedview
     id="namedview1"
     pagecolor="#ffffff"
     bordercolor="#000000"
     borderopacity="0.25"
     inkscape:showpageshadow="2"
     inkscape:pageopacity="0.0"
     inkscape:pagecheckerboard="0"
     inkscape:deskcolor="#d1d1d1"
     inkscape:document-units="mm"
     inkscape:zoom="0.76095324"
     inkscape:cx="339.7055"
     inkscape:cy="534.85547"
     inkscape:window-width="1368"
     inkscape:window-height="842"
     inkscape:window-x="-6"
     inkscape:window-y="-6"
     inkscape:window-maximized="1"
     inkscape:current-layer="g6" /><defs
     id="defs1" /><g
     inkscape:groupmode="layer"
     id="layer5"
     inkscape:label="Layer 5"><g
       id="g6"
       inkscape:label="HelmetButton"><path
         id="path5"
         style="opacity:1;fill:#ffd700;stroke:#000000;stroke-width:2.11667;stroke-linecap:round"
         d="M 191.40341,148.5 A 86.403412,86.403412 0 0 1 105,234.90341 86.403412,86.403412 0 0 1 18.596588,148.5 86.403412,86.403412 0 0 1 105,62.096588 86.403412,86.403412 0 0 1 191.40341,148.5 Z"
         inkscape:label="OuterCircle" /><path
         id="circle6"
         style="opacity:1;fill:#bf2231;stroke:#000000;stroke-width:2.11667;stroke-linecap:round"
         d="M 186.18791,148.5 A 81.187912,81.187912 0 0 1 105,229.68791 81.187912,81.187912 0 0 1 23.812088,148.5 81.187912,81.187912 0 0 1 105,67.312088 81.187912,81.187912 0 0 1 186.18791,148.5 Z"
         inkscape:label="InnerCircle" /><g
         id="g5"
         transform="translate(7.8519876,-32.446345)"
         inkscape:label="Helmet"><path
           id="path1"
           style="opacity:1;stroke-width:2.11667;stroke-linecap:round"
           d="M 127.25815,204.09981 A 29.728336,39.985481 0 0 1 97.529816,244.08529 29.728336,39.985481 0 0 1 67.801479,204.09981 29.728336,39.985481 0 0 1 97.529816,164.11433 29.728336,39.985481 0 0 1 127.25815,204.09981 Z"
           inkscape:label="FaceHole" /><path
           style="opacity:1;fill:#8c8c8c;fill-opacity:1;stroke:#000000;stroke-width:2.11667;stroke-linecap:round;stroke-opacity:1"
           d="m 135.25524,170.37293 c -6.95399,-36.85618 -38.942381,-36.50849 -38.942381,-36.50849 -38.594683,4.1724 -37.899284,36.16079 -37.899284,36.16079 z"
           id="path2"
           inkscape:label="TopOfHead" /><path
           style="opacity:1;fill:#8c8c8c;fill-opacity:1;stroke:#000000;stroke-width:2.11667;stroke-linecap:round;stroke-dasharray:none;stroke-opacity:1"
           d="m 105.35306,215.57391 -3.1293,-19.47119 c -1.7385,-2.4339 0.3477,-4.5201 0.3477,-4.5201 l 20.16659,-5.9109 1.7385,10.0833 -15.29879,6.6063 -1.7385,47.63488 29.90218,-37.55159 c -6.25859,-10.43099 1.3908,-43.81018 1.3908,-43.81018 -24.33899,-5.9109 -40.680881,-20.16659 -40.680881,-20.16659 -29.554487,17.03729 -42.419383,18.42809 -42.419383,18.42809 0,0 6.606299,25.38209 1.043101,46.93948 l 31.988387,35.46539 -1.3908,-46.59178 -16.341893,-7.3017 2.433899,-9.7356 18.080393,6.2586 c 0,0 3.824698,1.7385 2.433899,3.8247 l -2.0862,18.77579 6.258598,8.3448 z"
           id="path3"
           inkscape:label="FacePiece" /><path
           style="opacity:1;fill:#8c8c8c;fill-opacity:1;stroke:#000000;stroke-width:2.11667;stroke-linecap:round;stroke-dasharray:none;stroke-opacity:1"
           d="m 94.226659,135.95064 2.781599,-27.12059 1.738502,26.42519 c 0,0 -2.433904,2.0862 -4.520101,0.6954 z"
           id="path4"
           inkscape:label="PointyThing" /></g></g></g></svg>
