<?xml version="1.0" encoding="UTF-8" standalone="no"?>
<!-- Created with Inkscape (http://www.inkscape.org/) -->

<svg
   width="210mm"
   height="297mm"
   viewBox="0 0 210 297"
   version="1.1"
   id="svg1"
   xml:space="preserve"
   inkscape:version="1.3.2 (091e20e, 2023-11-25, custom)"
   sodipodi:docname="Mail.svg"
   xmlns:inkscape="http://www.inkscape.org/namespaces/inkscape"
   xmlns:sodipodi="http://sodipodi.sourceforge.net/DTD/sodipodi-0.dtd"
   xmlns="http://www.w3.org/2000/svg"
   xmlns:svg="http://www.w3.org/2000/svg"><sodipodi:namedview
     id="namedview1"
     pagecolor="#ffffff"
     bordercolor="#000000"
     borderopacity="0.25"
     inkscape:showpageshadow="2"
     inkscape:pageopacity="0.0"
     inkscape:pagecheckerboard="0"
     inkscape:deskcolor="#d1d1d1"
     inkscape:document-units="mm"
     inkscape:zoom="0.38047662"
     inkscape:cx="427.09589"
     inkscape:cy="536.16961"
     inkscape:window-width="1368"
     inkscape:window-height="842"
     inkscape:window-x="-6"
     inkscape:window-y="-6"
     inkscape:window-maximized="1"
     inkscape:current-layer="layer11" /><defs
     id="defs1"><inkscape:path-effect
       effect="skeletal"
       id="path-effect5"
       is_visible="true"
       lpeversion="1"
       pattern="M 0,4.9921382 C 0,2.2364779 2.2364779,0 4.9921382,0 c 2.7556604,0 4.9921383,2.2364779 4.9921383,4.9921382 0,2.7556604 -2.2364779,4.9921383 -4.9921383,4.9921383 C 2.2364779,9.9842765 0,7.7477986 0,4.9921382 Z"
       copytype="single_stretched"
       prop_scale="1"
       scale_y_rel="false"
       spacing="0"
       normal_offset="0"
       tang_offset="0"
       prop_units="false"
       vertical_pattern="false"
       hide_knot="false"
       fuse_tolerance="0" /></defs><g
     inkscape:groupmode="layer"
     id="layer11"
     inkscape:label="MailIcon"
     transform="matrix(1.8454479,0,0,1.8454479,-103.55916,83.311468)"><path
       id="path7"
       style="display:inline;opacity:1;fill:#ffd700;stroke:#000000;stroke-width:1.96702;stroke-linecap:round;stroke-linejoin:round;fill-opacity:1"
       d="M 208.69475,107.43925 A 126.98528,126.98528 0 0 1 81.709465,234.42453 126.98528,126.98528 0 0 1 -45.275818,107.43925 126.98528,126.98528 0 0 1 81.709465,-19.546036 126.98528,126.98528 0 0 1 208.69475,107.43925 Z"
       transform="matrix(0.54187388,0,0,0.54187388,63.746585,-46.557375)"
       inkscape:label="OuterCircle" /><path
       id="circle7"
       style="display:inline;opacity:1;fill:#f1efb8;stroke:#000000;stroke-width:1.81802;stroke-linecap:round;stroke-linejoin:round"
       d="M 199.07571,107.43925 A 117.36625,117.36625 0 0 1 81.709465,224.8055 117.36625,117.36625 0 0 1 -35.656784,107.43925 117.36625,117.36625 0 0 1 81.709465,-9.927002 117.36625,117.36625 0 0 1 199.07571,107.43925 Z"
       transform="matrix(0.54187388,0,0,0.54187388,63.746585,-46.557375)"
       inkscape:label="InnerCircle" /><g
       id="g6"
       transform="matrix(0.54187388,0,0,0.54187388,56.116003,-45.144308)"
       inkscape:label="Letter"><path
         id="rect4"
         style="opacity:1;fill:#f1efb8;stroke:#000000;stroke-width:2.11667;stroke-linecap:round;stroke-linejoin:round"
         d="M 15.298794,46.93948 H 176.28382 V 162.72353 H 15.298794 Z"
         inkscape:label="LetterRectangle" /><path
         style="opacity:1;fill:#f1efb8;fill-opacity:1;stroke:#000000;stroke-width:2.11667;stroke-linecap:round;stroke-dasharray:none;stroke-opacity:1;stroke-linejoin:round"
         d="M 15.298791,161.93826 H 176.28383 L 95.791306,85.96563 Z"
         id="path5"
         sodipodi:nodetypes="cccc"
         inkscape:label="BottomFold" /><path
         style="opacity:1;fill:#f1efb8;fill-opacity:1;stroke:#000000;stroke-width:2.11667;stroke-linecap:round;stroke-dasharray:none;stroke-opacity:1;stroke-linejoin:round"
         d="M 15.298794,46.93948 H 176.28382 l -80.492511,75.97241 z"
         id="path4"
         sodipodi:nodetypes="cccc"
         inkscape:label="TopFold" /><path
         id="path6"
         style="opacity:1;fill:#bf2231;stroke:#000000;stroke-width:2.11667;stroke-linecap:round;stroke-linejoin:round"
         d="M 121.8688,104.8315 A 26.07749,26.07749 0 0 1 95.791306,130.90899 26.07749,26.07749 0 0 1 69.713816,104.8315 26.07749,26.07749 0 0 1 95.791306,78.754007 26.07749,26.07749 0 0 1 121.8688,104.8315 Z"
         inkscape:label="WaxOuterCircle" /><path
         id="circle6"
         style="opacity:1;fill:#bf2231;stroke:#000000;stroke-width:1.68272;stroke-linecap:round;stroke-linejoin:round"
         d="M 116.52257,104.8315 A 20.731264,20.731264 0 0 1 95.791306,125.56276 20.731264,20.731264 0 0 1 75.060041,104.8315 20.731264,20.731264 0 0 1 95.791306,84.100233 20.731264,20.731264 0 0 1 116.52257,104.8315 Z"
         inkscape:label="WaxInnerCircle" /><path
         d="m 105.09687,94.279376 q 0.36125,-0.135467 0.58703,-0.135467 0.24835,-0.02258 1.15146,0.09031 0.56445,0.04516 0.69992,0.225778 0.29351,0.361245 0.65475,1.715913 0.0903,0.338667 0.31609,0.857957 0.13547,0.270933 0.31609,0.767645 0.31609,0.767645 0.56444,1.174046 0.18063,0.316089 0.58703,1.219201 0.33866,0.72249 0.38382,0.92569 0.0677,0.2032 0.0677,0.67733 0,0.63218 0.0452,0.63218 0.11289,0 0.27093,-0.0677 0.22578,-0.0452 0.33867,0.13547 0.11289,0.18062 0.11289,0.31608 0,0.11289 0.18062,0.51929 0.18062,0.4064 0.18062,0.45156 0,0.0452 -0.27093,0.31609 l -0.27093,0.22578 0.33866,-0.0452 q 0.22578,-0.0452 0.29351,-0.0226 0.0677,0.0226 0.0903,0.13547 0.0451,0.2032 0.31609,0.74507 0.27093,0.54187 0.33866,0.56444 0.0677,0.0452 0.0677,0.2032 0,0.18063 0.22577,0.51929 0.24836,0.31609 0.42898,0.4064 0.33867,0.18063 0.4064,0.8128 l 0.0452,0.38383 0.45155,0.22577 q 0.45156,0.2032 0.51929,0.38383 0.0677,0.15804 -0.13546,0.56444 -0.2032,0.4064 -0.31609,0.45156 -0.22578,0.0903 -1.87396,0.11289 -1.64818,0.0226 -2.4384,-0.0452 -0.49671,-0.0226 -0.65476,0.0452 -0.15804,0.0903 -0.36124,0 -0.18063,-0.0677 -0.24836,-0.24836 -0.0677,-0.18062 -0.0677,-0.6096 0,-0.54187 0.4064,-0.65476 0.15804,-0.0452 0.2032,-0.11288 0.0677,-0.0903 0.0226,-0.22578 -0.0452,-0.13547 -0.18063,-0.42898 -0.24835,-0.49671 -0.29351,-0.54187 -0.0903,-0.0677 -0.47413,-1.06115 -0.22578,-0.63218 -0.63218,-1.30952 -0.69991,-1.19662 -1.17405,-2.32551 0,-0.0226 -0.0677,-0.15804 -0.0677,-0.15805 -0.0903,-0.24836 -0.11289,-0.22578 -0.11289,-0.29351 0,-0.11289 -0.42898,-1.10631 -0.0677,-0.13547 -0.2032,0.18062 -0.0677,0.22578 -0.24835,0.74507 -0.27094,0.79022 -0.56445,1.44497 -0.18062,0.31609 -0.18062,0.54187 0,0.2032 -0.69991,1.64818 -0.42898,0.92569 -0.38383,1.08374 0.27094,1.10631 0.18063,1.37724 -0.0452,0.18062 -0.27094,0.33867 -0.22577,0.15804 -0.27093,0.29351 -0.0452,0.13547 -0.4064,0.29351 -0.36125,0.15805 -0.54187,0.33867 -0.15804,0.15804 -0.63218,0.13547 -0.4064,-0.0452 -0.76764,-0.13547 -0.31609,-0.11289 -0.83538,-0.65476 -0.496712,-0.56444 -0.880535,-1.24178 -0.451556,-0.74506 -0.496711,-0.74506 -0.06773,0 -0.06773,-0.0903 0,-0.0903 -0.09031,-0.18062 -0.112889,-0.11289 -0.361245,-0.88053 -0.270933,-0.8128 -0.745067,-1.53529 -0.835379,-1.33209 -1.083735,-2.09974 -0.04516,-0.15804 -0.2032,0.11289 -0.06773,0.0903 -0.158044,0.27093 -0.428979,0.74507 -0.72249,1.21921 -0.135467,0.22577 -0.383823,0.65475 -0.248355,0.42898 -0.270933,0.45156 -0.474134,0.79022 -0.767645,1.24178 -0.383823,0.6096 -0.812801,1.26435 -0.632179,1.08374 -1.64818,2.12232 -1.016001,1.016 -1.851379,1.44498 -0.338667,0.18062 -0.587023,0.38382 -0.270934,0.24835 -0.654756,0.38382 -0.428979,0.15805 -0.632179,0.24836 -0.293511,0.13546 -0.564445,0.2032 -0.361245,0.0903 -0.496711,0.15804 -1.24178,0.38382 -3.318937,0.74507 -2.280358,0.38382 -4.31236,-0.0677 -0.361245,-0.0677 -0.361245,-0.18063 0,-0.0677 -0.180622,-0.15804 -0.02258,-0.0226 -0.06773,-0.0452 -0.06773,-0.0226 -0.09031,-0.0451 h -0.02258 q 0,-0.11289 0.2032,-0.33867 0.180623,-0.22578 0.31609,-0.27093 0.158044,-0.0677 1.174045,-0.0677 1.12889,0 2.506136,-0.29351 1.377246,-0.27093 2.302936,-0.67733 0.835378,-0.36125 2.302936,-1.4224 0.496711,-0.38383 1.399823,-1.35467 0.92569,-0.99342 1.670757,-1.96427 0.745068,-0.94827 0.857957,-1.37725 0.09031,-0.31608 0.293511,-0.74506 0.225778,-0.42898 0.293512,-0.42898 0.06773,0 0.2032,-0.33867 0.135467,-0.36124 0.361245,-0.8128 0.158044,-0.31609 0.225778,-0.38382 0.09031,-0.0903 0.225778,-0.0903 h 0.2032 l -0.04516,-0.33867 q -0.04516,-0.31609 0.225778,-0.948267 0.406401,-0.948268 0.587023,-1.806224 0.04516,-0.248356 0.225778,-0.609601 0.180623,-0.383823 0.180623,-1.083734 0,-0.745068 0.09031,-0.92569 0.112889,-0.2032 0.383822,-0.564445 0.293512,-0.361245 0.383823,-0.406401 0.112889,-0.04515 0.587023,-0.02258 0.474134,0.02258 0.6096,0.09031 0.112889,0.06773 0.880535,0.112889 0.677334,0.04516 0.880534,0.135467 0.158044,0.09031 0.4064,0.6096 0.248356,0.496712 0.383823,0.970846 0.158045,0.474133 0.338667,0.8128 0.112889,0.180623 0.428978,0.92569 0.248356,0.587023 0.451556,0.880535 0.180623,0.225778 0.564442,1.083731 0.4064,0.83538 0.4064,0.99343 0,0.0677 -0.11289,0.4064 -0.0903,0.27093 -0.0903,0.31609 0,0.0677 0.38383,0.11288 0.4064,0.0452 0.49671,0.24836 0.11289,0.27093 0.0903,0.31609 0,0.13547 0.13547,0.36124 0.15804,0.27094 0.15804,0.45156 0,0.13547 0.0677,0.13547 0.0677,0 0.0677,0.13546 0,0.18063 0.11289,0.47414 l 0.11289,0.33867 0.22577,-0.40641 q 0.22578,-0.45155 0.54187,-1.44497 0.27093,-0.83538 0.54187,-1.60303 0.0677,-0.18062 0.18062,-0.45155 0.11289,-0.29352 0.13547,-0.33867 0.0903,-0.293513 0.2032,-0.541869 0.13546,-0.316089 0.45155,-1.264356 0.33867,-0.948268 0.36125,-1.151468 0.0451,-0.248356 -0.0677,-0.812801 -0.13546,-0.632179 -0.13546,-1.016001 0,-0.451556 0.13546,-0.654756 0.15805,-0.203201 0.63218,-0.383823 z"
         id="text6"
         style="font-size:22.5778px;font-family:'the rum is gone';-inkscape-font-specification:'the rum is gone, Normal';text-align:center;letter-spacing:0.79375px;text-anchor:middle;fill:#bf2231;stroke:#000000;stroke-width:1.05833;stroke-linecap:round;stroke-linejoin:round"
         aria-label="M"
         inkscape:label="M" /></g><g
       id="g4"
       transform="matrix(0.72657034,0,0,0.72657034,46.994545,-149.01896)"
       inkscape:label="ExclamationMark"><path
         id="path2"
         style="fill:#bf2231;fill-opacity:1;stroke:#000000;stroke-width:2.11667;stroke-linecap:round;stroke-dasharray:none;stroke-opacity:1"
         d="m 147.51655,172.89709 c 1e-5,9.67217 -16.47268,36.19844 -16.47268,36.19844 0,0 -16.47269,-26.52627 -16.47268,-36.19844 0,-9.67216 7.37507,-17.513 16.47268,-17.513 9.09761,0 16.47268,7.84084 16.47268,17.513 z"
         sodipodi:nodetypes="scsss"
         inkscape:label="Line?" /><path
         id="path3"
         style="fill:#bf2231;stroke:#000000;stroke-width:2.11667;stroke-linecap:round"
         d="m 139.15728,228.65065 a 8.1134109,7.8675494 0 0 1 -8.11341,7.86755 8.1134109,7.8675494 0 0 1 -8.11341,-7.86755 8.1134109,7.8675494 0 0 1 8.11341,-7.86755 8.1134109,7.8675494 0 0 1 8.11341,7.86755 z"
         inkscape:label="Dot" /></g></g></svg>
