<?xml version="1.0" encoding="UTF-8" standalone="no"?>
<!-- Created with Inkscape (http://www.inkscape.org/) -->

<svg
   width="210mm"
   height="297mm"
   viewBox="0 0 210 297"
   version="1.1"
   id="svg1"
   xml:space="preserve"
   inkscape:version="1.3.2 (091e20e, 2023-11-25, custom)"
   sodipodi:docname="PurseIcon.svg"
   xmlns:inkscape="http://www.inkscape.org/namespaces/inkscape"
   xmlns:sodipodi="http://sodipodi.sourceforge.net/DTD/sodipodi-0.dtd"
   xmlns="http://www.w3.org/2000/svg"
   xmlns:svg="http://www.w3.org/2000/svg"><sodipodi:namedview
     id="namedview1"
     pagecolor="#ffffff"
     bordercolor="#000000"
     borderopacity="0.25"
     inkscape:showpageshadow="2"
     inkscape:pageopacity="0.0"
     inkscape:pagecheckerboard="0"
     inkscape:deskcolor="#d1d1d1"
     inkscape:document-units="mm"
     inkscape:zoom="0.38047662"
     inkscape:cx="119.58685"
     inkscape:cy="441.55144"
     inkscape:window-width="1368"
     inkscape:window-height="842"
     inkscape:window-x="-6"
     inkscape:window-y="-6"
     inkscape:window-maximized="1"
     inkscape:current-layer="layer7" /><defs
     id="defs1" /><g
     inkscape:groupmode="layer"
     id="layer7"
     inkscape:label="Layer 6"><g
       id="g29"
       inkscape:label="CoinPurseIcon"><circle
         style="opacity:1;fill:#ffd700;fill-opacity:1;stroke:#000000;stroke-width:2.11667;stroke-linecap:round;stroke-dasharray:none;stroke-opacity:1"
         id="path27"
         cx="105"
         cy="148.5"
         r="91.837944"
         inkscape:label="OuterCircle" /><circle
         style="opacity:1;fill:#bf2231;fill-opacity:1;stroke:#000000;stroke-width:2.11667;stroke-linecap:round;stroke-dasharray:none;stroke-opacity:1"
         id="circle27"
         cx="105"
         cy="148.5"
         r="84.188545"
         inkscape:label="InnerCircle" /><path
         style="opacity:1;fill:#f1efb8;fill-opacity:1;stroke:#000000;stroke-width:2.11667;stroke-linecap:round;stroke-dasharray:none;stroke-opacity:1"
         d="m 148.00828,103.26159 c -20.1606,8.85099 -23.60265,21.14404 -23.60265,21.14404 48.68046,36.87914 32.45364,72.77483 32.45364,72.77483 -39.82947,19.17716 -89.001655,-0.49172 -89.001655,-0.49172 -11.801324,-50.15563 32.453645,-70.80795 32.453645,-70.80795 0,0 1.47516,-12.29304 -21.144041,-21.63576 0,0 -9.342716,-13.276487 29.995031,-3.44205 0,0 52.61424,-10.817879 38.84603,2.45861 z"
         id="path1"
         transform="translate(-2.1041516,-3.1597383)"
         inkscape:label="Bag" /><path
         style="opacity:1;fill:#2a11a7;fill-opacity:1;stroke:#000000;stroke-width:2.11667;stroke-linecap:round;stroke-dasharray:none;stroke-opacity:1"
         d="m 125.63493,121.02504 c 7.56023,0.79905 3.25766,6.57678 3.25766,6.57678 -11.37107,4.67136 -28.82723,2.02835 -28.82723,2.02835 -7.560188,-4.67136 0.0615,-7.80608 0.0615,-7.80608 0,0 12.7233,1.2293 25.50807,-0.79905 z"
         id="path2"
         transform="translate(-2.1041516,-3.1597383)"
         inkscape:label="Tie" /><path
         style="opacity:1;fill:#2a11a7;fill-opacity:1;stroke:#000000;stroke-width:2.11667;stroke-linecap:round;stroke-dasharray:none;stroke-opacity:1"
         d="m 125.88079,126.61838 c 0,0 -9.7115,22.25041 -4.17963,41.67342 l 4.67136,-9.34271 c 0,0 -3.68792,-8.4822 -0.12293,-29.38038 0,0 9.83443,20.77525 7.25289,35.77276 l 3.93378,8.60514 c 0,0 8.23633,-16.71854 -11.55547,-47.32823 z"
         id="path4"
         transform="translate(-2.1041516,-3.1597383)"
         inkscape:label="TieEnds" /><circle
         style="opacity:1;fill:#2a11a7;fill-opacity:1;stroke:#000000;stroke-width:2.11667;stroke-linecap:round;stroke-dasharray:none;stroke-opacity:1"
         id="path3"
         cx="127.23302"
         cy="125.512"
         r="6.0235925"
         transform="translate(-2.1041516,-3.1597383)"
         inkscape:label="TieKnot" /><path
         id="path26"
         style="opacity:1;fill:#ffd700;fill-opacity:1;stroke:#000000;stroke-width:2.11667;stroke-linecap:round;stroke-dasharray:none;stroke-opacity:1"
         d="m 152.13898,198.64704 c -11.85117,0.15266 -22.03463,-1.88593 -22.03463,-1.88593 l 0.0101,-0.54472 c 0,0 21.7899,-6.64435 38.4167,-0.70748 l -0.0177,1.17937 c -5.27068,1.36814 -10.99459,1.88946 -16.37454,1.95876 z m -22.01885,-1.33668 c -0.002,-3.3e-4 -0.0239,-0.003 -0.0253,-0.006 l 0.01,-0.53905 z m 38.55719,5.04234 c -16.56396,6.11012 -38.4222,-0.30629 -38.4222,-0.30629 l -0.15053,-5.2853 c 0,0 21.54511,4.31311 38.42932,-0.0776 z"
         transform="translate(-2.1041516,-3.1597383)"
         inkscape:label="Coin" /><path
         id="path20"
         style="opacity:1;fill:#ffd700;fill-opacity:1;stroke:#000000;stroke-width:2.11667;stroke-linecap:round;stroke-dasharray:none;stroke-opacity:1"
         d="m 45.542665,165.82486 0.122473,5.28598 c 0,0 21.824798,6.53053 38.420394,0.50695 l -0.103353,-5.15111 -0.02429,1.21491 -0.03462,-1.72237 c -16.89956,4.28193 -38.380603,-0.13436 -38.380603,-0.13436 z m 0,5.46892 0.122473,5.28598 c 0,0 21.824798,6.53053 38.420394,0.50695 l -0.109037,-5.43223 c -13.25022,4.75944 -29.755313,1.57081 -35.866028,0.0946 -1.608542,-0.26204 -2.567802,-0.45527 -2.567802,-0.45527 z m 0,5.36556 0.122473,5.28598 c 0,0 21.824798,6.53053 38.420394,0.50695 l -0.10697,-5.32939 c -14.334862,5.15004 -32.48829,0.99681 -37.153805,-0.22583 -0.801548,-0.14217 -1.282092,-0.23771 -1.282092,-0.23771 z m 0,5.36505 0.122473,5.28598 c 0,0 21.824798,6.53053 38.420394,0.50695 l -0.10697,-5.32888 c -14.328846,5.14787 -32.472196,0.9998 -37.147087,-0.22479 -0.805478,-0.1428 -1.28881,-0.23926 -1.28881,-0.23926 z m 0,5.46943 0.122473,5.28598 c 0,0 21.824798,6.53002 38.420394,0.50643 l -0.109037,-5.43222 c -13.253668,4.76068 -29.764315,1.56978 -35.871196,0.0941 -1.605506,-0.26162 -2.562634,-0.45424 -2.562634,-0.45424 z m 0,5.26118 0.122473,5.28598 c 0,0 21.824798,6.53053 38.420394,0.50695 l -0.104903,-5.22656 C 67.398002,199.2802 45.665138,192.7798 45.665138,192.7798 v -0.002 c -0.01089,-0.002 -0.122473,-0.0232 -0.122473,-0.0232 z m 22.181074,-31.0782 c -11.839922,-0.0282 -22.155754,3.05872 -22.155754,3.05872 l -0.02532,1.08934 c 0.53497,0.10877 21.639622,4.35237 38.332027,0.10439 l 0.03979,1.98489 0.0739,-3.68556 c -5.186124,-1.88237 -10.882858,-2.53895 -16.26464,-2.55178 z"
         transform="translate(-2.1041516,-3.1597383)"
         inkscape:label="CoinStack" /><path
         id="path23"
         style="opacity:1;fill:#ffd700;fill-opacity:1;stroke:#000000;stroke-width:2.11667;stroke-linecap:round;stroke-dasharray:none;stroke-opacity:1"
         d="m 114.33244,200.31911 c -11.85181,0.0908 -22.024493,-2.00091 -22.024493,-2.00091 l 0.01292,-0.54467 c 0,0 21.824303,-6.53052 38.419883,-0.50695 l -0.0238,1.17926 c -5.27775,1.34062 -11.0043,1.83205 -16.38454,1.87327 z m -22.011574,-1.45159 c -0.0019,-3.8e-4 -0.0238,-0.004 -0.02532,-0.005 l 0.0124,-0.53899 z m 38.530344,5.24351 c -16.59562,6.02359 -38.420086,-0.50682 -38.420086,-0.50682 l -0.12293,-5.28601 c 0,0 21.522296,4.4255 38.429206,0.12293 z"
         transform="translate(-2.1041516,-3.1597383)"
         inkscape:label="Coin" /><path
         id="path25"
         style="opacity:1;fill:#ffd700;fill-opacity:1;stroke:#000000;stroke-width:2.11667;stroke-linecap:round;stroke-dasharray:none;stroke-opacity:1"
         d="m 100.62309,195.07541 c -11.653689,2.15987 -22.035359,1.87745 -22.035359,1.87745 l -0.08244,-0.53855 c 0,0 20.347836,-10.24271 37.740509,-7.21095 l 0.18257,1.16529 c -4.96238,2.242 -10.51503,3.72628 -15.80533,4.70677 z m -21.926678,2.41607 c -0.0021,0 -0.02405,7.8e-4 -0.02585,-0.001 l -0.08193,-0.53287 z m 38.853868,-1.56821 c -15.28813,8.83015 -37.917818,6.21279 -37.917818,6.21279 l -1.044491,-5.18324 c 0,0 21.964459,0.59759 37.859739,-6.59238 z"
         transform="translate(-2.1041516,-3.1597383)"
         inkscape:label="Coin" /><path
         id="path24"
         style="opacity:1;fill:#ffd700;fill-opacity:1;stroke:#000000;stroke-width:2.11667;stroke-linecap:round;stroke-dasharray:none;stroke-opacity:1"
         d="m 130.75876,194.31811 c -11.13718,-4.05424 -19.93872,-9.5671 -19.93872,-9.5671 l 0.20232,-0.50586 c 0,0 22.73079,1.50299 36.17753,12.94335 l -0.43416,1.09669 c -5.41362,-0.58709 -10.95119,-2.12664 -16.00702,-3.9671 z m -20.11848,-9.04786 c -0.002,-0.001 -0.021,-0.0117 -0.0219,-0.0139 l 0.19989,-0.50071 z m 34.27267,18.37027 c -17.65433,-0.15185 -35.82366,-13.89335 -35.82366,-13.89335 l 1.73098,-4.99607 c 0,0 18.62135,11.66361 35.96628,13.53682 z"
         transform="translate(-2.1041516,-3.1597383)"
         inkscape:label="Coin" /></g></g></svg>
