<?xml version="1.0" encoding="UTF-8" standalone="no"?>
<!-- Created with Inkscape (http://www.inkscape.org/) -->

<svg
   width="210mm"
   height="297mm"
   viewBox="0 0 210 297"
   version="1.1"
   id="svg1"
   inkscape:version="1.3.2 (091e20e, 2023-11-25, custom)"
   sodipodi:docname="ScrollButton.svg"
   xmlns:inkscape="http://www.inkscape.org/namespaces/inkscape"
   xmlns:sodipodi="http://sodipodi.sourceforge.net/DTD/sodipodi-0.dtd"
   xmlns="http://www.w3.org/2000/svg"
   xmlns:svg="http://www.w3.org/2000/svg">
  <sodipodi:namedview
     id="namedview1"
     pagecolor="#ffffff"
     bordercolor="#000000"
     borderopacity="0.25"
     inkscape:showpageshadow="2"
     inkscape:pageopacity="0.0"
     inkscape:pagecheckerboard="0"
     inkscape:deskcolor="#d1d1d1"
     inkscape:document-units="mm"
     inkscape:zoom="0.46890089"
     inkscape:cx="397.73864"
     inkscape:cy="513.96789"
     inkscape:window-width="1368"
     inkscape:window-height="842"
     inkscape:window-x="-6"
     inkscape:window-y="-6"
     inkscape:window-maximized="1"
     inkscape:current-layer="layer1" />
  <defs
     id="defs1" />
  <g
     inkscape:label="Layer 1"
     inkscape:groupmode="layer"
     id="layer1">
    <g
       id="g26"
       transform="matrix(1.5463872,0,0,1,-78.130269,0)"
       style="stroke-width:0.804157"
       inkscape:label="ParchmentScroll">
      <path
         style="color:#000000;opacity:1;fill:#352c15;fill-opacity:1;stroke-width:0.720196;stroke-linecap:round;-inkscape-stroke:none"
         d="m 71.548604,46.369263 c -8.442486,-1.22e-4 -15.302547,6.859936 -15.302425,15.302425 v 45.773432 5.16041 c 1.81e-4,11.29171 9.171128,20.46089 20.462834,20.46077 0.937698,5e-5 1.874146,-0.0705 2.80293,-0.19896 2.136964,-0.0108 4.263171,-0.119 6.374804,-0.34365 13.569271,-1.44362 26.455433,-6.97634 38.968683,-12.4473 9.76559,-4.26966 19.30446,-8.49068 28.74398,-10.75593 v 9.73636 0.002 c -4e-5,2.97558 1.82533,5.61107 4.60592,7.45123 2.78059,1.84015 6.54847,2.94498 10.69702,2.94504 4.1487,4e-5 7.91635,-1.10488 10.69702,-2.94504 2.52548,-1.67127 4.18693,-4.01612 4.48448,-6.65851 h 0.21911 l -0.0977,-9.82214 V 57.551009 l -0.48472,-0.203605 c -5.91465,-2.504877 -11.80677,-3.498994 -17.68161,-3.398242 -1.53573,0.02634 -3.06936,0.126529 -4.60334,0.290938 -12.27244,1.31533 -24.49748,6.783069 -37.00601,12.251965 -12.17079,5.321253 -24.609918,10.633327 -37.575997,12.225611 V 61.671688 C 86.853734,53.229411 79.990881,46.369442 71.548604,46.369263 Z"
         id="path6" />
      <path
         style="color:#000000;opacity:1;fill:#979560;fill-opacity:1;stroke-width:0.720196;stroke-linecap:round;-inkscape-stroke:none"
         d="m 164.87211,107.67095 -0.63769,1.53995 c -3.01741,0.65522 -5.61723,1.86787 -7.48636,3.52537 -0.6608,0.58597 -1.09047,1.29239 -1.56063,1.97662 v -5.73039 c 1.54349,-0.3336 3.08398,-0.62763 4.62245,-0.85163 0.57912,-0.0806 1.15825,-0.16071 1.73685,-0.22273 0.6973,-0.0747 1.39412,-0.13304 2.09083,-0.17983 0.0921,-0.006 0.18433,-0.013 0.27647,-0.0186 0.31943,-0.0197 0.63873,-0.0254 0.95808,-0.0387 z"
         id="path26" />
      <path
         style="color:#000000;opacity:1;fill:#f1efb8;fill-opacity:1;stroke-width:0.720196;stroke-linecap:round;-inkscape-stroke:none"
         d="m 166.05653,107.62289 c 0.61037,-0.0102 1.22104,5e-4 1.83141,0.015 0.22168,0.005 0.44341,0.01 0.66508,0.0181 0.67003,0.0259 1.34003,0.0608 2.0097,0.11731 0.97923,0.0826 1.95883,0.20839 2.93883,0.3638 0.20524,0.0333 0.4107,0.0739 0.61599,0.11059 0.64389,0.11233 1.2882,0.2493 1.9327,0.39429 0.60691,0.13947 1.214,0.29042 1.82159,0.4594 0.17841,0.0488 0.35689,0.10262 0.53537,0.154 1.40361,0.41028 2.80929,0.8947 4.21783,1.46347 l 0.0744,7.54476 h -0.0801 v 0.79479 c 3e-5,2.32739 -1.42406,4.49219 -3.89485,6.12727 -2.47079,1.63508 -5.95733,2.68152 -9.82214,2.68149 -3.86468,-6e-5 -7.35145,-1.04642 -9.82214,-2.68149 -2.46995,-1.63458 -3.89197,-3.79864 -3.89278,-6.12521 v -0.002 c 0.005,-1.85692 0.92143,-3.63482 2.61327,-5.13508 1.69245,-1.5008 4.15419,-2.69014 7.10551,-3.27319 l 0.64079,-0.12506 v -2.88199 c 0.16981,-0.005 0.33974,-0.0178 0.50953,-0.0207 z"
         id="path25" />
      <path
         style="color:#000000;opacity:1;fill:#979560;fill-opacity:1;stroke-width:0.720196;stroke-linecap:round;-inkscape-stroke:none"
         d="m 72.49635,93.820113 c 4.904921,0.340033 9.095127,3.220398 11.239107,7.340637 0.117988,0.22863 0.230097,0.46067 0.33538,0.6966 0.06231,0.13854 0.1231,0.27761 0.180868,0.41858 0.121184,0.298 0.232374,0.60092 0.332796,0.90899 0.0314,0.0956 0.06369,0.19075 0.09302,0.28732 0.107393,0.35613 0.19992,0.71846 0.278536,1.08624 0.01308,0.0608 0.02804,0.12081 0.04031,0.1819 0.08146,0.4083 0.145235,0.82325 0.189653,1.24385 0.0029,0.0273 0.0071,0.0543 0.0098,0.0817 0.04516,0.45361 0.06975,0.91359 0.06976,1.37924 v 5.2e-4 c -0.0055,7.24856 -5.631219,13.12205 -12.769247,13.61674 z"
         id="path24" />
      <path
         style="color:#000000;opacity:1;fill:#f1efb8;fill-opacity:1;stroke-width:0.720196;stroke-linecap:round;-inkscape-stroke:none"
         d="m 166.06635,55.537179 c 5.5179,-0.09463 11.01203,0.857199 16.55299,3.124873 v 6.229078 c -2.87437,-1.127443 -5.74375,-1.907044 -8.60826,-2.380217 v 1.627291 c 2.86335,0.505574 5.72955,1.321453 8.60826,2.499589 v 5.453931 c -2.87437,-1.127443 -5.74375,-1.907044 -8.60826,-2.380217 v 1.627291 c 2.86335,0.505575 5.72955,1.321452 8.60826,2.499589 v 5.453414 c -2.87437,-1.127442 -5.74375,-1.907044 -8.60826,-2.380217 v 1.627291 c 2.86335,0.505574 5.72955,1.321453 8.60826,2.499589 v 5.453931 c -2.87437,-1.127443 -5.74375,-1.907043 -8.60826,-2.380216 v 1.62729 c 2.86335,0.505574 5.72955,1.321453 8.60826,2.499589 v 5.453931 c -2.87437,-1.127443 -5.74375,-1.907043 -8.60826,-2.380216 v 1.62729 c 2.86335,0.505574 5.72955,1.321453 8.60826,2.49959 v 5.453417 c -2.87437,-1.127447 -5.74375,-1.907047 -8.60826,-2.38022 v 1.62729 c 2.86335,0.50558 5.72955,1.32145 8.60826,2.49959 v 6.33863 c -3.98076,-1.54295 -7.95622,-2.45233 -11.92382,-2.78691 h -5.1e-4 c -0.70721,-0.0596 -1.41416,-0.097 -2.1208,-0.12351 -0.19126,-0.007 -0.38241,-0.0107 -0.57361,-0.0155 -0.26837,-0.007 -0.53691,-0.0191 -0.80512,-0.0212 -0.37546,-0.003 -0.75016,8e-5 -1.12551,0.006 -0.0129,2e-4 -0.0259,-7.4e-4 -0.0388,-5.2e-4 -0.015,2.5e-4 -0.03,10e-4 -0.045,0.002 -0.14647,0.003 -0.29282,0.009 -0.43925,0.0124 v -0.01 l -0.004,0.0103 c -0.005,1.4e-4 -0.0107,-1.5e-4 -0.016,0 l 0.0202,-0.0103 -0.6134,0.0274 c -0.0984,0.004 -0.19669,0.01 -0.29507,0.0139 -0.26822,0.012 -0.53641,0.0253 -0.8046,0.0413 -0.0286,0.002 -0.0572,0.003 -0.0858,0.005 -0.03,0.002 -0.06,0.003 -0.0899,0.005 -0.0994,0.006 -0.19877,0.0153 -0.29818,0.0222 -0.1871,0.0129 -0.37412,0.0265 -0.5612,0.0414 -0.14212,0.0114 -0.28425,0.0231 -0.42633,0.0356 -0.33118,0.0291 -0.66266,0.0596 -0.99374,0.0951 -0.72554,0.0778 -1.45035,0.17247 -2.17506,0.27853 -0.0973,0.0142 -0.19467,0.0282 -0.29197,0.0429 -0.65657,0.0994 -1.31294,0.20897 -1.96887,0.3297 -0.18969,0.0347 -0.37931,0.0721 -0.56896,0.10852 -0.51967,0.10032 -1.03923,0.2063 -1.55856,0.31884 -0.25065,0.0542 -0.5013,0.10892 -0.7519,0.16589 l -0.46405,0.10542 v 0.006 c -9.76336,2.28538 -19.49686,6.6165 -29.38064,10.93783 -12.50578,5.46771 -25.250843,10.91266 -38.499971,12.32225 -2.053626,0.21848 -4.126554,0.32532 -6.215125,0.3359 h -0.05426 l -0.05478,0.008 c -0.889568,0.12783 -1.786918,0.19177 -2.685624,0.19172 -10.433103,1.1e-4 -18.874095,-8.44042 -18.875334,-18.87327 v -5.15989 -5.2e-4 h 5.17e-4 c 0,-0.006 5.08e-4,-0.0127 5.17e-4,-0.0191 6.53e-4,-0.46725 0.02367,-0.92932 0.06976,-1.38441 0.04675,-0.46155 0.116524,-0.91647 0.207739,-1.36322 0.273678,-1.34047 0.742233,-2.60915 1.37511,-3.77549 0.210924,-0.38872 0.440003,-0.76585 0.686263,-1.130675 0.24626,-0.364828 0.509787,-0.717122 0.789099,-1.05575 0.279313,-0.338627 0.574619,-0.663441 0.884701,-0.973584 0.147621,-0.147642 0.308808,-0.280875 0.463021,-0.42168 0.817498,-0.746418 1.715563,-1.406471 2.696476,-1.938899 0.777376,-0.421953 1.600446,-0.770785 2.459798,-1.037663 0.859352,-0.266878 1.755328,-0.451668 2.678389,-0.545186 0.250992,-0.02543 0.50842,-0.02701 0.763261,-0.03876 V 122.746 l 0.802535,-0.01 c 8.374902,-0.0882 15.136488,-6.91576 15.142745,-15.29106 V 80.281405 c 13.335953,-1.600442 25.978163,-6.98711 38.212653,-12.336198 12.51532,-5.471869 24.61911,-10.849551 36.5373,-12.126909 1.48985,-0.159678 2.97739,-0.25564 4.46278,-0.281119 z"
         id="path23" />
      <path
         style="color:#000000;opacity:1;fill:#f1efb8;fill-opacity:1;stroke-width:0.720196;stroke-linecap:round;-inkscape-stroke:none"
         d="m 71.548604,47.957279 c 7.38806,1.57e-4 13.381487,5.821371 13.687537,13.133049 -1.350317,-2.717107 -3.477355,-4.981012 -6.097819,-6.486943 v 1.858285 c 3.463569,2.308829 5.813124,6.152971 6.084383,10.568864 h 0.04289 v 1.825211 c -1.348682,-2.743054 -3.488107,-5.028141 -6.127275,-6.54482 v 1.858285 c 3.463569,2.308827 5.813124,6.15297 6.084383,10.568864 h 0.04289 v 1.825211 c -1.348682,-2.743054 -3.488107,-5.028141 -6.127275,-6.54482 v 1.858285 c 3.463569,2.308827 5.813124,6.15297 6.084383,10.568864 h 0.04289 v 1.825211 c -1.348682,-2.743054 -3.488107,-5.028142 -6.127275,-6.54482 v 1.858285 c 3.463569,2.308827 5.813124,6.152973 6.084383,10.568863 h 0.04289 v 1.825212 c -1.348682,-2.743054 -3.488107,-5.028143 -6.127275,-6.54482 v 1.858284 c 3.463569,2.308829 5.813124,6.152973 6.084383,10.568864 h 0.04289 v 2.807067 c -2.176174,-4.387633 -6.394473,-7.588566 -11.414808,-8.34833 -0.07305,-0.01117 -0.146747,-0.01985 -0.220141,-0.02997 -0.0015,-2.11e-4 -0.0031,-3.06e-4 -0.0047,-5.17e-4 -0.256703,-0.03496 -0.515077,-0.06374 -0.775663,-0.08578 -0.08774,-0.0075 -0.174867,-0.01675 -0.263033,-0.02274 -0.290118,-0.01952 -0.582104,-0.03307 -0.876433,-0.03617 l -0.162264,-0.0015 -0.640271,-0.0062 v 0.02946 c -0.2515,0.01052 -0.50173,0.02437 -0.749825,0.04702 -0.139933,0.01266 -0.2782,0.02958 -0.417029,0.04599 -0.325949,0.0389 -0.648242,0.08849 -0.967382,0.147795 -0.147273,0.02708 -0.295544,0.05037 -0.441317,0.08165 -0.392597,0.08513 -0.779619,0.184225 -1.160136,0.299207 -0.230787,0.06896 -0.455003,0.151043 -0.681095,0.230477 -0.151998,0.05401 -0.304,0.107709 -0.453719,0.166398 -0.278674,0.107986 -0.553192,0.222142 -0.823723,0.345715 -0.0068,0.0031 -0.01337,0.0067 -0.02015,0.0098 -3.201155,1.467938 -5.80335,4.003982 -7.359757,7.155125 v -2.834459 h 0.04289 c 0.27119,-4.416793 2.620512,-8.261743 6.084384,-10.570414 v -1.858284 c -2.639236,1.516387 -4.77865,3.801571 -6.127275,6.54482 v -1.823662 h 0.04289 c 0.27119,-4.416793 2.620512,-8.261743 6.084384,-10.570414 v -1.858284 c -2.639236,1.516387 -4.77865,3.801571 -6.127275,6.54482 v -1.823661 h 0.04289 c 0.27119,-4.416796 2.620512,-8.261743 6.084384,-10.570415 v -1.858284 c -2.639236,1.516387 -4.77865,3.801571 -6.127275,6.54482 v -1.823661 h 0.04289 c 0.27119,-4.416796 2.620512,-8.261745 6.084384,-10.570414 v -1.858285 c -2.639236,1.516388 -4.77865,3.801571 -6.127275,6.54482 v -1.823661 h 0.04289 c 0.27119,-4.416796 2.620512,-8.261746 6.084384,-10.570414 V 54.601873 C 61.341009,56.10744 59.21386,58.371181 57.863592,61.088299 58.17055,53.77741 64.160995,47.957211 71.548544,47.957317 Z"
         id="path22" />
      <text
         xml:space="preserve"
         style="font-size:16.9333px;font-family:'the rum is gone';-inkscape-font-specification:'the rum is gone, Normal';letter-spacing:0.79375px;opacity:1;fill:#352c15;fill-opacity:1;stroke:none;stroke-width:1.05833;stroke-linecap:round;stroke-dasharray:none;stroke-opacity:1"
         x="78.058296"
         y="97.37822"
         id="text26"
         transform="matrix(0.64666858,0,0,1,50.524389,0)"><tspan
           sodipodi:role="line"
           id="tspan26"
           style="font-size:16.9333px;fill:#d40000;stroke:#000000;stroke-width:1.05833;stroke-opacity:1"
           x="78.058296"
           y="97.37822">Text</tspan></text>
    </g>
    <path
       id="path9"
       style="color:#000000;opacity:1;fill:#000000;stroke-linecap:round;-inkscape-stroke:none"
       d="m 59.692223,196.39875 c -8.442504,-1.2e-4 -15.302547,6.85992 -15.302425,15.30242 v 45.77344 5.16041 c 1.81e-4,11.29173 9.171106,20.46089 20.462834,20.46077 0.9377,5e-5 1.874146,-0.0705 2.80293,-0.19896 2.13697,-0.0108 4.263167,-0.119 6.374804,-0.34365 13.569291,-1.44364 26.455414,-6.97634 38.968684,-12.4473 9.76561,-4.26968 19.30444,-8.49068 28.74398,-10.75593 v 9.73636 0.002 c -4e-5,2.97558 1.82533,5.61107 4.60592,7.45123 2.78059,1.84015 6.54845,2.94498 10.69702,2.94504 4.1487,4e-5 7.91633,-1.10488 10.69702,-2.94504 2.52548,-1.67127 4.18693,-4.01612 4.48448,-6.65851 h 0.21911 l -0.0977,-9.82214 v -52.47846 l -0.48472,-0.2036 c -5.91465,-2.50488 -11.80675,-3.49899 -17.68161,-3.39824 -1.53573,0.0263 -3.06936,0.12653 -4.60334,0.29094 -12.27248,1.31533 -24.49746,6.78305 -37.00601,12.25196 -12.17083,5.32126 -24.609893,10.63333 -37.575998,12.22561 v -17.04599 c 1.21e-4,-8.44229 -6.862716,-15.30224 -15.305009,-15.30242 z m 0,1.58801 c 7.58435,1.7e-4 13.717102,6.13006 13.716993,13.71441 v 17.23668 21.7594 c -2.176178,-4.38764 -6.394463,-7.58857 -11.414808,-8.34833 -0.07305,-0.0112 -0.146747,-0.0199 -0.220141,-0.03 -0.0015,-2.1e-4 -0.0031,-3e-4 -0.0047,-5.1e-4 -0.256703,-0.035 -0.515075,-0.0637 -0.775663,-0.0858 -0.08773,-0.007 -0.174867,-0.0168 -0.263033,-0.0227 -0.290118,-0.0195 -0.582104,-0.0331 -0.876433,-0.0362 l -0.162264,-0.002 -0.640271,-0.006 v 0.0295 c -0.251502,0.0105 -0.50173,0.0244 -0.749825,0.047 -0.139933,0.0127 -0.2782,0.0296 -0.417029,0.046 -0.325951,0.0389 -0.64824,0.0885 -0.967382,0.1478 -0.147273,0.0271 -0.295544,0.0504 -0.441317,0.0816 -0.392597,0.0851 -0.779619,0.18422 -1.160136,0.2992 -0.230787,0.069 -0.455001,0.15105 -0.681095,0.23048 -0.151998,0.054 -0.303998,0.10771 -0.453719,0.1664 -0.278674,0.10798 -0.553192,0.22214 -0.823723,0.34571 -0.0068,0.003 -0.01337,0.007 -0.02015,0.01 -3.201163,1.46794 -5.803346,4.00399 -7.359757,7.15513 v -39.02347 c -1.09e-4,-7.58454 6.129867,-13.71451 13.714408,-13.71441 z m 94.517747,7.5799 c 5.51792,-0.0946 11.01201,0.8572 16.55299,3.12488 v 50.31631 c -3.98078,-1.54295 -7.95622,-2.45233 -11.92382,-2.78691 h -5.1e-4 c -0.70721,-0.0596 -1.41416,-0.097 -2.1208,-0.12351 -0.19126,-0.007 -0.38241,-0.0107 -0.57361,-0.0155 -0.26837,-0.007 -0.53691,-0.0191 -0.80512,-0.0212 -0.37546,-0.003 -0.75016,8e-5 -1.12551,0.006 -0.0129,2e-4 -0.0258,-7.4e-4 -0.0388,-5.2e-4 -0.015,2.5e-4 -0.03,10e-4 -0.045,0.002 -0.14647,0.003 -0.29282,0.009 -0.43925,0.0124 v -0.01 l -0.004,0.0103 c -0.005,1.4e-4 -0.0107,-1.5e-4 -0.016,0 l 0.0202,-0.0103 -0.6134,0.0274 c -0.0984,0.004 -0.19669,0.01 -0.29507,0.0139 -0.26822,0.012 -0.53641,0.0253 -0.8046,0.0413 -0.0286,0.002 -0.0572,0.003 -0.0858,0.005 -0.03,0.002 -0.0599,0.003 -0.0899,0.005 -0.0994,0.006 -0.19877,0.0153 -0.29818,0.0222 -0.1871,0.0129 -0.37412,0.0265 -0.5612,0.0414 -0.14212,0.0114 -0.28425,0.0231 -0.42633,0.0356 -0.33118,0.0291 -0.66266,0.0596 -0.99374,0.0951 -0.72554,0.0778 -1.45035,0.17247 -2.17506,0.27853 -0.0973,0.0142 -0.19467,0.0282 -0.29197,0.0429 -0.65657,0.0994 -1.31292,0.20897 -1.96887,0.3297 -0.18969,0.0347 -0.37931,0.0721 -0.56896,0.10852 -0.51967,0.10032 -1.03923,0.2063 -1.55856,0.31884 -0.25065,0.0542 -0.5013,0.10892 -0.7519,0.16589 l -0.46405,0.10542 v 0.006 c -9.76338,2.28538 -19.49684,6.61648 -29.38064,10.93783 -12.505823,5.46771 -25.250823,10.91266 -38.499972,12.32225 -2.05363,0.21848 -4.12655,0.32532 -6.215125,0.3359 h -0.05426 l -0.05478,0.008 c -0.88957,0.12783 -1.786916,0.19177 -2.685624,0.19172 -10.433123,1.1e-4 -18.874095,-8.4404 -18.875334,-18.87327 v -5.15989 -5.2e-4 h 5.17e-4 c 0,-0.006 5.08e-4,-0.0127 5.17e-4,-0.0191 6.53e-4,-0.46725 0.02367,-0.92932 0.06976,-1.38441 0.04675,-0.46155 0.116524,-0.91645 0.207739,-1.36322 0.273678,-1.34047 0.742231,-2.60915 1.37511,-3.77549 0.210924,-0.38874 0.440003,-0.76585 0.686263,-1.13068 0.24626,-0.36483 0.509787,-0.71712 0.789099,-1.05575 0.279313,-0.33863 0.574619,-0.66344 0.884701,-0.97358 0.147621,-0.14765 0.308808,-0.28088 0.463021,-0.42168 0.8175,-0.74642 1.715561,-1.40647 2.696476,-1.9389 0.777378,-0.42196 1.600444,-0.77079 2.459798,-1.03767 0.859354,-0.26687 1.755326,-0.45166 2.678389,-0.54518 0.250992,-0.0254 0.508418,-0.027 0.763261,-0.0388 v 28.98532 l 0.802535,-0.01 c 8.374918,-0.0882 15.136488,-6.91574 15.142745,-15.29106 v -27.16372 c 13.335981,-1.60044 25.978154,-6.9871 38.212664,-12.3362 12.51534,-5.47188 24.61909,-10.84955 36.5373,-12.12691 1.48985,-0.15967 2.97739,-0.25564 4.46278,-0.28112 z M 60.639969,243.8496 c 4.904931,0.34003 9.095121,3.22039 11.239107,7.34064 0.117988,0.22863 0.230095,0.46067 0.33538,0.6966 0.06231,0.13854 0.1231,0.27761 0.180868,0.41858 0.121184,0.298 0.232374,0.60092 0.332796,0.90899 0.0314,0.0956 0.06369,0.19075 0.09302,0.28732 0.107393,0.35613 0.19992,0.71846 0.278536,1.08624 0.01308,0.0608 0.02804,0.12081 0.04031,0.1819 0.08146,0.4083 0.145235,0.82325 0.189653,1.24385 0.0029,0.0273 0.0071,0.0543 0.0098,0.0817 0.04516,0.45361 0.06975,0.91359 0.06976,1.37924 v 5.2e-4 c -0.0055,7.24858 -5.631205,13.12205 -12.769247,13.61674 z m 93.560181,13.80278 c 0.61037,-0.0102 1.22104,5e-4 1.83141,0.015 0.22168,0.005 0.44341,0.01 0.66508,0.0181 0.67003,0.0259 1.34003,0.0608 2.0097,0.11731 0.97925,0.0826 1.95881,0.20839 2.93883,0.3638 0.20524,0.0333 0.4107,0.0739 0.61599,0.11059 0.64389,0.11233 1.2882,0.2493 1.9327,0.39429 0.60691,0.13947 1.214,0.29042 1.82159,0.4594 0.17841,0.0488 0.35689,0.10262 0.53537,0.154 1.40361,0.41028 2.80929,0.8947 4.21783,1.46347 l 0.0744,7.54476 h -0.0801 v 0.79479 c 3e-5,2.32741 -1.42406,4.49219 -3.89485,6.12727 -2.47079,1.63508 -5.95733,2.68152 -9.82214,2.68149 -3.8647,-6e-5 -7.35145,-1.04642 -9.82214,-2.68149 -2.46995,-1.63458 -3.89197,-3.79864 -3.89278,-6.12521 v -0.002 c 0.005,-1.85692 0.92141,-3.6348 2.61327,-5.13508 1.69245,-1.5008 4.15417,-2.69014 7.10551,-3.27319 l 0.64079,-0.12506 v -2.88199 c 0.16981,-0.005 0.33974,-0.0178 0.50953,-0.0207 z m -1.18442,0.0481 -0.63769,1.53995 c -3.01741,0.65522 -5.61721,1.86787 -7.48636,3.52537 -0.6608,0.58597 -1.09047,1.29237 -1.56063,1.97662 v -5.73039 c 1.54349,-0.3336 3.08396,-0.62763 4.62245,-0.85163 0.57912,-0.0806 1.15825,-0.16071 1.73685,-0.22273 0.6973,-0.0747 1.39412,-0.13304 2.09083,-0.17983 0.0921,-0.006 0.18433,-0.013 0.27647,-0.0186 0.31943,-0.0197 0.63873,-0.0254 0.95808,-0.0387 z"
       inkscape:label="BlankScroll" />
  </g>
</svg>
