<?xml version="1.0" encoding="UTF-8" standalone="no"?>
<!-- Created with Inkscape (http://www.inkscape.org/) -->

<svg
   width="297mm"
   height="210mm"
   viewBox="0 0 297 210"
   version="1.1"
   id="svg1"
   xml:space="preserve"
   sodipodi:docname="Title.svg"
   inkscape:version="1.3.2 (091e20e, 2023-11-25, custom)"
   xmlns:inkscape="http://www.inkscape.org/namespaces/inkscape"
   xmlns:sodipodi="http://sodipodi.sourceforge.net/DTD/sodipodi-0.dtd"
   xmlns="http://www.w3.org/2000/svg"
   xmlns:svg="http://www.w3.org/2000/svg"><sodipodi:namedview
     id="namedview1"
     pagecolor="#ffffff"
     bordercolor="#000000"
     borderopacity="0.25"
     inkscape:showpageshadow="2"
     inkscape:pageopacity="0.0"
     inkscape:pagecheckerboard="0"
     inkscape:deskcolor="#d1d1d1"
     inkscape:document-units="mm"
     inkscape:zoom="0.51580387"
     inkscape:cx="491.46587"
     inkscape:cy="236.52401"
     inkscape:window-width="1368"
     inkscape:window-height="842"
     inkscape:window-x="-6"
     inkscape:window-y="-6"
     inkscape:window-maximized="1"
     inkscape:current-layer="layer1" /><defs
     id="defs1"><rect
       x="331.52136"
       y="368.35706"
       width="449.78336"
       height="143.46538"
       id="rect2" /></defs><g
     inkscape:label="Layer 1"
     inkscape:groupmode="layer"
     id="layer1"><text
       xml:space="preserve"
       transform="scale(0.26458333)"
       id="text1"
       style="font-size:42.6667px;font-family:'the rum is gone';-inkscape-font-specification:'the rum is gone, Normal';letter-spacing:3px;white-space:pre;shape-inside:url(#rect2);display:inline;opacity:1;fill:#f1efb8;fill-opacity:1;stroke-width:2;stroke-linecap:round" /><g
       id="g4"><g
         id="g1"
         transform="matrix(1.3894971,0.15939196,-0.14381788,0.9917852,-19.805053,-18.205597)"
         style="stroke-width:0.844851"><g
           inkscape:label="Layer 1"
           id="layer1-2"
           transform="translate(27.672279,11.625811)"
           style="stroke-width:0.844851"><g
             id="g26"
             transform="matrix(1.5463872,0,0,1,-78.130269,0)"
             style="stroke-width:0.679393"><path
               style="color:#000000;opacity:1;fill:#352c15;fill-opacity:1;stroke-width:0.608457;stroke-linecap:round;-inkscape-stroke:none"
               d="m 71.548604,46.369263 c -8.442486,-1.22e-4 -15.302547,6.859936 -15.302425,15.302425 v 45.773432 5.16041 c 1.81e-4,11.29171 9.171128,20.46089 20.462834,20.46077 0.937698,5e-5 1.874146,-0.0705 2.80293,-0.19896 2.136964,-0.0108 4.263171,-0.119 6.374804,-0.34365 13.569271,-1.44362 26.455433,-6.97634 38.968683,-12.4473 9.76559,-4.26966 19.30446,-8.49068 28.74398,-10.75593 v 9.73636 0.002 c -4e-5,2.97558 1.82533,5.61107 4.60592,7.45123 2.78059,1.84015 6.54847,2.94498 10.69702,2.94504 4.1487,4e-5 7.91635,-1.10488 10.69702,-2.94504 2.52548,-1.67127 4.18693,-4.01612 4.48448,-6.65851 h 0.21911 l -0.0977,-9.82214 V 57.551009 l -0.48472,-0.203605 c -5.91465,-2.504877 -11.80677,-3.498994 -17.68161,-3.398242 -1.53573,0.02634 -3.06936,0.126529 -4.60334,0.290938 -12.27244,1.31533 -24.49748,6.783069 -37.00601,12.251965 -12.17079,5.321253 -24.609918,10.633327 -37.575997,12.225611 V 61.671688 C 86.853734,53.229411 79.990881,46.369442 71.548604,46.369263 Z"
               id="path6" /><path
               style="color:#000000;opacity:1;fill:#979560;fill-opacity:1;stroke-width:0.608457;stroke-linecap:round;-inkscape-stroke:none"
               d="m 164.87211,107.67095 -0.63769,1.53995 c -3.01741,0.65522 -5.61723,1.86787 -7.48636,3.52537 -0.6608,0.58597 -1.09047,1.29239 -1.56063,1.97662 v -5.73039 c 1.54349,-0.3336 3.08398,-0.62763 4.62245,-0.85163 0.57912,-0.0806 1.15825,-0.16071 1.73685,-0.22273 0.6973,-0.0747 1.39412,-0.13304 2.09083,-0.17983 0.0921,-0.006 0.18433,-0.013 0.27647,-0.0186 0.31943,-0.0197 0.63873,-0.0254 0.95808,-0.0387 z"
               id="path26" /><path
               style="color:#000000;opacity:1;fill:#f1efb8;fill-opacity:1;stroke-width:0.608457;stroke-linecap:round;-inkscape-stroke:none"
               d="m 166.05653,107.62289 c 0.61037,-0.0102 1.22104,5e-4 1.83141,0.015 0.22168,0.005 0.44341,0.01 0.66508,0.0181 0.67003,0.0259 1.34003,0.0608 2.0097,0.11731 0.97923,0.0826 1.95883,0.20839 2.93883,0.3638 0.20524,0.0333 0.4107,0.0739 0.61599,0.11059 0.64389,0.11233 1.2882,0.2493 1.9327,0.39429 0.60691,0.13947 1.214,0.29042 1.82159,0.4594 0.17841,0.0488 0.35689,0.10262 0.53537,0.154 1.40361,0.41028 2.80929,0.8947 4.21783,1.46347 l 0.0744,7.54476 h -0.0801 v 0.79479 c 3e-5,2.32739 -1.42406,4.49219 -3.89485,6.12727 -2.47079,1.63508 -5.95733,2.68152 -9.82214,2.68149 -3.86468,-6e-5 -7.35145,-1.04642 -9.82214,-2.68149 -2.46995,-1.63458 -3.89197,-3.79864 -3.89278,-6.12521 v -0.002 c 0.005,-1.85692 0.92143,-3.63482 2.61327,-5.13508 1.69245,-1.5008 4.15419,-2.69014 7.10551,-3.27319 l 0.64079,-0.12506 v -2.88199 c 0.16981,-0.005 0.33974,-0.0178 0.50953,-0.0207 z"
               id="path25" /><path
               style="color:#000000;opacity:1;fill:#979560;fill-opacity:1;stroke-width:0.608457;stroke-linecap:round;-inkscape-stroke:none"
               d="m 72.49635,93.820113 c 4.904921,0.340033 9.095127,3.220398 11.239107,7.340637 0.117988,0.22863 0.230097,0.46067 0.33538,0.6966 0.06231,0.13854 0.1231,0.27761 0.180868,0.41858 0.121184,0.298 0.232374,0.60092 0.332796,0.90899 0.0314,0.0956 0.06369,0.19075 0.09302,0.28732 0.107393,0.35613 0.19992,0.71846 0.278536,1.08624 0.01308,0.0608 0.02804,0.12081 0.04031,0.1819 0.08146,0.4083 0.145235,0.82325 0.189653,1.24385 0.0029,0.0273 0.0071,0.0543 0.0098,0.0817 0.04516,0.45361 0.06975,0.91359 0.06976,1.37924 v 5.2e-4 c -0.0055,7.24856 -5.631219,13.12205 -12.769247,13.61674 z"
               id="path24" /><path
               style="color:#000000;opacity:1;fill:#f1efb8;fill-opacity:1;stroke-width:0.608457;stroke-linecap:round;-inkscape-stroke:none"
               d="m 166.06635,55.537179 c 5.5179,-0.09463 11.01203,0.857199 16.55299,3.124873 v 6.229078 c -2.87437,-1.127443 -5.74375,-1.907044 -8.60826,-2.380217 v 1.627291 c 2.86335,0.505574 5.72955,1.321453 8.60826,2.499589 v 5.453931 c -2.87437,-1.127443 -5.74375,-1.907044 -8.60826,-2.380217 v 1.627291 c 2.86335,0.505575 5.72955,1.321452 8.60826,2.499589 v 5.453414 c -2.87437,-1.127442 -5.74375,-1.907044 -8.60826,-2.380217 v 1.627291 c 2.86335,0.505574 5.72955,1.321453 8.60826,2.499589 v 5.453931 c -2.87437,-1.127443 -5.74375,-1.907043 -8.60826,-2.380216 v 1.62729 c 2.86335,0.505574 5.72955,1.321453 8.60826,2.499589 v 5.453931 c -2.87437,-1.127443 -5.74375,-1.907043 -8.60826,-2.380216 v 1.62729 c 2.86335,0.505574 5.72955,1.321453 8.60826,2.49959 v 5.453417 c -2.87437,-1.127447 -5.74375,-1.907047 -8.60826,-2.38022 v 1.62729 c 2.86335,0.50558 5.72955,1.32145 8.60826,2.49959 v 6.33863 c -3.98076,-1.54295 -7.95622,-2.45233 -11.92382,-2.78691 h -5.1e-4 c -0.70721,-0.0596 -1.41416,-0.097 -2.1208,-0.12351 -0.19126,-0.007 -0.38241,-0.0107 -0.57361,-0.0155 -0.26837,-0.007 -0.53691,-0.0191 -0.80512,-0.0212 -0.37546,-0.003 -0.75016,8e-5 -1.12551,0.006 -0.0129,2e-4 -0.0259,-7.4e-4 -0.0388,-5.2e-4 -0.015,2.5e-4 -0.03,10e-4 -0.045,0.002 -0.14647,0.003 -0.29282,0.009 -0.43925,0.0124 v -0.01 l -0.004,0.0103 c -0.005,1.4e-4 -0.0107,-1.5e-4 -0.016,0 l 0.0202,-0.0103 -0.6134,0.0274 c -0.0984,0.004 -0.19669,0.01 -0.29507,0.0139 -0.26822,0.012 -0.53641,0.0253 -0.8046,0.0413 -0.0286,0.002 -0.0572,0.003 -0.0858,0.005 -0.03,0.002 -0.06,0.003 -0.0899,0.005 -0.0994,0.006 -0.19877,0.0153 -0.29818,0.0222 -0.1871,0.0129 -0.37412,0.0265 -0.5612,0.0414 -0.14212,0.0114 -0.28425,0.0231 -0.42633,0.0356 -0.33118,0.0291 -0.66266,0.0596 -0.99374,0.0951 -0.72554,0.0778 -1.45035,0.17247 -2.17506,0.27853 -0.0973,0.0142 -0.19467,0.0282 -0.29197,0.0429 -0.65657,0.0994 -1.31294,0.20897 -1.96887,0.3297 -0.18969,0.0347 -0.37931,0.0721 -0.56896,0.10852 -0.51967,0.10032 -1.03923,0.2063 -1.55856,0.31884 -0.25065,0.0542 -0.5013,0.10892 -0.7519,0.16589 l -0.46405,0.10542 v 0.006 c -9.76336,2.28538 -19.49686,6.6165 -29.38064,10.93783 -12.50578,5.46771 -25.250843,10.91266 -38.499971,12.32225 -2.053626,0.21848 -4.126554,0.32532 -6.215125,0.3359 h -0.05426 l -0.05478,0.008 c -0.889568,0.12783 -1.786918,0.19177 -2.685624,0.19172 -10.433103,1.1e-4 -18.874095,-8.44042 -18.875334,-18.87327 v -5.15989 -5.2e-4 h 5.17e-4 c 0,-0.006 5.08e-4,-0.0127 5.17e-4,-0.0191 6.53e-4,-0.46725 0.02367,-0.92932 0.06976,-1.38441 0.04675,-0.46155 0.116524,-0.91647 0.207739,-1.36322 0.273678,-1.34047 0.742233,-2.60915 1.37511,-3.77549 0.210924,-0.38872 0.440003,-0.76585 0.686263,-1.130675 0.24626,-0.364828 0.509787,-0.717122 0.789099,-1.05575 0.279313,-0.338627 0.574619,-0.663441 0.884701,-0.973584 0.147621,-0.147642 0.308808,-0.280875 0.463021,-0.42168 0.817498,-0.746418 1.715563,-1.406471 2.696476,-1.938899 0.777376,-0.421953 1.600446,-0.770785 2.459798,-1.037663 0.859352,-0.266878 1.755328,-0.451668 2.678389,-0.545186 0.250992,-0.02543 0.50842,-0.02701 0.763261,-0.03876 V 122.746 l 0.802535,-0.01 c 8.374902,-0.0882 15.136488,-6.91576 15.142745,-15.29106 V 80.281405 c 13.335953,-1.600442 25.978163,-6.98711 38.212653,-12.336198 12.51532,-5.471869 24.61911,-10.849551 36.5373,-12.126909 1.48985,-0.159678 2.97739,-0.25564 4.46278,-0.281119 z"
               id="path23" /><path
               style="color:#000000;opacity:1;fill:#f1efb8;fill-opacity:1;stroke-width:0.608457;stroke-linecap:round;-inkscape-stroke:none"
               d="m 71.548604,47.957279 c 7.38806,1.57e-4 13.381487,5.821371 13.687537,13.133049 -1.350317,-2.717107 -3.477355,-4.981012 -6.097819,-6.486943 v 1.858285 c 3.463569,2.308829 5.813124,6.152971 6.084383,10.568864 h 0.04289 v 1.825211 c -1.348682,-2.743054 -3.488107,-5.028141 -6.127275,-6.54482 v 1.858285 c 3.463569,2.308827 5.813124,6.15297 6.084383,10.568864 h 0.04289 v 1.825211 c -1.348682,-2.743054 -3.488107,-5.028141 -6.127275,-6.54482 v 1.858285 c 3.463569,2.308827 5.813124,6.15297 6.084383,10.568864 h 0.04289 v 1.825211 c -1.348682,-2.743054 -3.488107,-5.028142 -6.127275,-6.54482 v 1.858285 c 3.463569,2.308827 5.813124,6.152973 6.084383,10.568863 h 0.04289 v 1.825212 c -1.348682,-2.743054 -3.488107,-5.028143 -6.127275,-6.54482 v 1.858284 c 3.463569,2.308829 5.813124,6.152973 6.084383,10.568864 h 0.04289 v 2.807067 c -2.176174,-4.387633 -6.394473,-7.588566 -11.414808,-8.34833 -0.07305,-0.01117 -0.146747,-0.01985 -0.220141,-0.02997 -0.0015,-2.11e-4 -0.0031,-3.06e-4 -0.0047,-5.17e-4 -0.256703,-0.03496 -0.515077,-0.06374 -0.775663,-0.08578 -0.08774,-0.0075 -0.174867,-0.01675 -0.263033,-0.02274 -0.290118,-0.01952 -0.582104,-0.03307 -0.876433,-0.03617 l -0.162264,-0.0015 -0.640271,-0.0062 v 0.02946 c -0.2515,0.01052 -0.50173,0.02437 -0.749825,0.04702 -0.139933,0.01266 -0.2782,0.02958 -0.417029,0.04599 -0.325949,0.0389 -0.648242,0.08849 -0.967382,0.147795 -0.147273,0.02708 -0.295544,0.05037 -0.441317,0.08165 -0.392597,0.08513 -0.779619,0.184225 -1.160136,0.299207 -0.230787,0.06896 -0.455003,0.151043 -0.681095,0.230477 -0.151998,0.05401 -0.304,0.107709 -0.453719,0.166398 -0.278674,0.107986 -0.553192,0.222142 -0.823723,0.345715 -0.0068,0.0031 -0.01337,0.0067 -0.02015,0.0098 -3.201155,1.467938 -5.80335,4.003982 -7.359757,7.155125 v -2.834459 h 0.04289 c 0.27119,-4.416793 2.620512,-8.261743 6.084384,-10.570414 v -1.858284 c -2.639236,1.516387 -4.77865,3.801571 -6.127275,6.54482 v -1.823662 h 0.04289 c 0.27119,-4.416793 2.620512,-8.261743 6.084384,-10.570414 v -1.858284 c -2.639236,1.516387 -4.77865,3.801571 -6.127275,6.54482 v -1.823661 h 0.04289 c 0.27119,-4.416796 2.620512,-8.261743 6.084384,-10.570415 v -1.858284 c -2.639236,1.516387 -4.77865,3.801571 -6.127275,6.54482 v -1.823661 h 0.04289 c 0.27119,-4.416796 2.620512,-8.261745 6.084384,-10.570414 v -1.858285 c -2.639236,1.516388 -4.77865,3.801571 -6.127275,6.54482 v -1.823661 h 0.04289 c 0.27119,-4.416796 2.620512,-8.261746 6.084384,-10.570414 V 54.601873 C 61.341009,56.10744 59.21386,58.371181 57.863592,61.088299 58.17055,53.77741 64.160995,47.957211 71.548544,47.957317 Z"
               id="path22" /></g><path
             style="font-size:16.9333px;font-family:'the rum is gone';-inkscape-font-specification:'the rum is gone, Normal';letter-spacing:0.79375px;fill:#d40000;stroke:#000000;stroke-width:0.894133;stroke-linecap:round"
             d="m 80.141092,85.914375 q 0.1016,-0.118533 0.1524,-0.118533 0.06773,0 0.321733,0.135467 0.338666,0.169333 0.948264,0.203199 0.660399,0.03387 0.863599,0 0.203199,-0.01693 0.321732,0.03387 0.135467,0.0508 0.372533,0.253999 0.253999,0.220133 0.287866,0.220133 0.03387,0 0.220133,-0.253999 l 0.186266,-0.270933 0.778932,-0.03387 q 0.863598,-0.03387 1.219198,0.01693 0.423332,0.0508 0.558799,0 0.101599,-0.0508 0.491065,-0.01693 0.524933,0.0508 1.64253,0.0508 1.117598,0 1.269998,-0.03387 0.237066,-0.06773 0.474132,-0.06773 0.220133,0 0.423333,-0.06773 0.304799,-0.101599 0.457199,-0.118533 0.253999,-0.03387 0.372532,0.1016 0.1016,0.135466 0.1016,0.186266 0,0.08467 0.1524,0.372533 0.1524,0.287866 0.186266,0.287866 0.03387,0 0.03387,0.06773 0,0.06773 0.118533,0.372533 0.135466,0.287866 0.2032,0.372532 0.0508,0.08467 0.03387,0.08467 -0.01693,0 0.01693,0.1524 0.0508,0.152399 0.118534,0.321732 0.08467,0.169333 0.118533,0.186267 0.203199,0.169333 0.135466,0.440265 -0.03387,0.135467 -0.321733,0.3048 -0.287866,0.169333 -0.558799,0.186266 -0.237066,0.01693 -0.389465,-0.118533 -0.118534,-0.1016 -0.270933,-0.440266 -0.135467,-0.287866 -0.186267,-0.287866 -0.03387,0 -0.287866,-0.253999 -0.270932,-0.270933 -0.524932,-0.440266 -0.2032,-0.135467 -0.304799,-0.1524 -0.1016,-0.01693 -0.541866,0 h -0.558799 l -0.08467,-0.203199 q -0.135467,-0.372533 -0.237067,-0.01693 l -0.0508,0.2032 -0.507999,-0.01693 h -0.507999 l -0.03387,0.220132 q -0.0508,0.254 -0.03387,1.066798 0.01693,0.812799 0.08467,1.202265 0.08467,0.524932 0.118533,1.185331 0.0508,0.660398 0,0.778931 -0.0508,0.08467 -0.389466,0.237067 -0.338666,0.152399 -0.338666,0.220133 0,0.0508 0.423333,0.0508 h 0.423332 v 0.338666 q 0,0.338666 -0.03387,0.372533 -0.06773,0.03387 -0.03387,0.321733 0.03387,0.287866 -0.03387,0.355599 -0.01693,0.01693 -0.03387,0.0508 0,0.03387 0.01693,0.0508 0.0508,0.0508 0.0508,0.643465 0.01693,0.677332 0.0508,0.863599 0.0508,0.169333 0.253999,0.372532 0.237066,0.237066 0.237066,0.3048 0,0.152399 0.474133,0.304799 0.1016,0.03387 0.338666,0.1524 0.135466,0.118533 0.1524,0.558799 0.03387,0.423332 -0.1016,0.558799 -0.220133,0.220132 -1.151465,0.253999 -0.795865,0.01693 -2.489195,-0.03387 -1.676396,-0.03387 -1.947329,-0.08467 -0.440266,-0.08467 -0.558799,-0.287866 -0.118533,-0.2032 0.03387,-0.643466 0.08467,-0.253999 0.135467,-0.321732 0.06773,-0.06773 0.186266,-0.06773 0.237066,0 0.3048,-0.2032 0.01693,-0.08467 0.135466,-0.270933 0.1016,-0.135466 0.1016,-0.186266 0,-0.06773 0.203199,-0.237066 0.3048,-0.287866 0.220133,-0.728132 -0.06773,-0.389466 0.0508,-1.100665 0.06773,-0.355599 -0.06773,-1.049864 -0.1524,-0.880532 -0.1524,-1.269998 v -0.541866 l 0.372533,-0.152399 q 0.1016,-0.03387 0.169333,-0.06773 0.08467,-0.0508 0.135466,-0.08467 l 0.03387,-0.03387 q -0.03387,-0.0508 -0.355599,-0.0508 h -0.321733 l 0.01693,-1.388531 q 0,-1.456264 0.01693,-1.523997 l 0.01693,-0.118533 h -1.134531 -1.134531 l -0.338666,0.186266 q -0.287867,0.169333 -0.626533,0.507999 -0.287866,0.270933 -0.558798,0.677332 -0.270933,0.389466 -0.237067,0.474133 0.03387,0.08467 -0.101599,0.135466 -0.135467,0.06773 -0.423333,-0.03387 -0.304799,-0.101599 -0.440266,-0.203199 -0.118533,-0.1016 -0.08467,-0.406399 0.03387,-0.3048 0.1016,-0.440266 0.101599,-0.186267 0.135466,-0.372533 0.08467,-0.338666 0.237066,-0.745065 0.186266,-0.474132 0.186266,-0.524932 0,-0.03387 0.135467,-0.2032 0.135466,-0.169333 0.135466,-0.253999 0,-0.186267 0.220133,-0.4572 z m 24.737458,-0.355599 q 0.0508,-0.01693 0.0847,-0.03387 0.0508,-0.01693 0.0847,-0.03387 l 0.0339,-0.01693 q 0.11853,0 0.18626,0.287866 0.0169,0.135466 0.32174,0.423332 l 0.28786,0.287866 -0.0847,0.169333 q -0.0847,0.1524 0,0.287866 0.0847,0.118534 0.0847,0.220133 0,0.1016 0.0508,0.1524 0.0508,0.1016 0.1016,0.321733 0.0508,0.203199 0.1016,0.304799 0.18627,0.254 0.3556,0.660399 0.16934,0.406399 0.2032,0.677332 0.0508,0.253999 -0.0508,0.287866 -0.0508,0 -0.0847,0.1016 -0.0169,0.08467 -0.3048,0.135466 -0.27094,0.03387 -0.44027,-0.118533 -0.11853,-0.118533 -0.254,-0.321733 -0.0847,-0.169333 -0.22013,-0.169333 -0.28787,0 -0.62653,-0.491065 -0.27094,-0.372533 -0.6604,-0.761999 -0.28787,-0.304799 -0.4064,-0.389466 -0.11854,-0.08467 -0.4064,-0.152399 -0.37253,-0.118534 -0.59267,-0.3048 -0.23706,-0.220133 -0.254,-0.08467 0,0.101599 -0.72813,0.08467 -0.67733,-0.01693 -0.67733,0.03387 0.0339,0.03387 0,0.03387 -0.0339,0 -0.1016,-0.01693 -0.0677,-0.01693 -0.18627,0.01693 -0.1016,0.03387 -0.18626,0.1016 -0.0677,0.0508 -0.0508,0.08467 0.0169,0.03387 -0.0508,0.135466 -0.0508,0.08467 -0.0339,0.406399 0.0169,0.237066 -0.0169,0.643466 -0.0339,0.253999 0,1.320797 0.0508,1.066798 0.1016,1.405464 0.0169,0.135466 0.0339,0.186266 0.0169,0.03387 0.0677,0.06773 0.0508,0.01693 0.16933,0.03387 0.27093,0.03387 0.94827,0.03387 0.67733,-0.01693 0.98213,-0.06773 0.59266,-0.101599 0.89746,-0.338666 0.1524,-0.135466 0.2032,-0.423332 0.0677,-0.338666 0.13547,-0.406399 0.16933,-0.2032 0.7112,0.03387 l 0.23706,0.1016 0.0339,0.474133 q 0.0339,0.457199 0.0847,0.626532 0.0508,0.135466 0.0847,0.406399 0,0.203199 0.0508,0.253999 0.0339,0.03387 0.0339,0.558799 0,0.524933 0.0508,0.541866 0.13546,0.06773 0,0.423332 -0.16933,0.372533 -0.9144,0.1524 -0.0677,-0.01693 -0.16933,-0.186266 -0.18627,-0.338666 -0.8636,-0.812799 -0.52493,-0.355599 -2.01506,-0.338666 l -0.762,0.01693 -0.0508,0.186266 q -0.0339,0.169333 0.0508,0.355599 0.0847,0.169333 0.0847,0.3556 v 0.440265 q 0,0.3048 -0.0508,0.372533 -0.0508,0.08467 0,0.186266 0.0508,0.06773 0,0.135467 -0.0508,0.06773 -0.37253,0.338666 -0.135465,0.1016 -0.11853,0.169333 0.0339,0.0508 0.23706,0.135466 0.2032,0.08467 0.254,0.287866 0.0339,0.2032 0.0169,0.237066 -0.0339,0.06773 0.0339,0.287867 0.0677,0.203199 0.13547,0.237066 0.16933,0.0508 0.88053,0.08467 0.72813,0.03387 1.03293,0.1016 0.28787,0.06773 0.3556,0.03387 0.13547,-0.06773 0.254,0 0.13547,0.0508 0.7112,0.06773 0.57573,0 0.89747,-0.03387 0.3048,-0.03387 0.55879,-0.135466 0.32174,-0.135467 0.762,-0.186266 0.5588,-0.08467 0.6096,0 0.0508,0.08467 0.1524,0.08467 0.1524,0 0.1524,0.372533 0,0.253999 -0.254,0.423332 -0.23706,0.1524 -0.88053,0.338666 -0.0677,0.01693 -1.08373,0.321733 -0.88053,0.270933 -1.89653,0.287866 l -0.72813,0.01693 -0.0847,-0.152399 q -0.0847,-0.1524 -0.16933,-0.03387 -0.0508,0.06773 -0.18627,0.08467 -0.11853,0.01693 -0.72813,-0.01693 -1.083731,-0.08467 -1.557864,-0.118533 -0.829731,-0.06773 -1.456264,-0.01693 -0.812798,0.03387 -1.710263,0.03387 -0.778932,0 -0.897465,-0.01693 -0.118533,0 -0.186266,-0.1016 -0.2032,-0.253999 0.169333,-0.626532 0.2032,-0.220133 0.592665,-0.270933 l 0.4064,-0.0508 0.152399,-0.304799 q 0.135467,-0.270933 0.338666,-0.507999 0.169333,-0.186266 0.169333,-0.270933 0.01693,-0.1016 -0.0508,-0.592665 -0.06773,-0.389466 -0.01693,-1.100665 0.0508,-0.575732 -0.0508,-1.371597 -0.1016,-0.761999 -0.1016,-1.74413 0,-0.846665 0.0508,-0.999065 0.0508,-0.152399 0.491066,-0.643465 0.270933,-0.3048 0.254,-0.372533 -0.01693,-0.06773 -0.440266,-0.203199 -0.3048,-0.1016 -0.338666,-0.169333 -0.03387,-0.06773 0.03387,-0.372533 0.118533,-0.457199 -0.355599,-0.812798 -0.423332,-0.321733 -0.897465,-0.3556 -0.541865,-0.0508 -0.643465,-0.220133 -0.1016,-0.169333 0.220133,-0.507999 0.220133,-0.220132 0.524932,-0.270932 0.355599,-0.03387 0.592665,-0.01693 0.169333,0.01693 0.220133,0.03387 0.06773,0 0.1016,0.03387 0.0508,0.03387 0.1016,0.135466 0.2032,0.372533 0.474132,0.01693 l 0.1524,-0.186266 1.828796,-0.03387 q 1.94733,-0.03387 3.42053,0 0.98213,0.03387 1.35466,0 0.37254,-0.0508 0.5588,-0.203199 0.254,-0.169333 0.33867,-0.2032 z m 4.92546,0.524932 q 0.47413,-0.0508 1.50706,-0.0508 1.03293,0 1.23613,0.0508 0.11854,0.03387 0.254,-0.01693 0.13547,-0.0508 0.33867,0.03387 0.22013,0.06773 0.23707,0.169333 0.0339,0.321732 -0.16934,0.863598 -0.0339,0.1016 -0.0169,0.169333 0.0339,0.06773 0.22013,0.304799 0.0508,0.06773 0.23707,0.321733 0.2032,0.254 0.28786,0.372533 0.23707,0.355599 0.44027,0.558799 0.13547,0.135466 0.28787,0.440265 0.0339,0.06773 0.13546,0.254 0.1016,0.169333 0.13547,0.237066 l 0.13547,0.220133 0.20319,-0.220133 q 0.0508,-0.06773 0.28787,-0.338666 0.23707,-0.287866 0.3556,-0.440266 0.4064,-0.541865 1.016,-1.134531 l 0.57573,-0.609599 -0.13547,-0.186266 q -0.13546,-0.186266 -0.3048,-0.220133 -0.25399,-0.0508 -0.25399,-0.372532 0,-0.220133 0.13546,-0.270933 0.1524,-0.06773 0.8128,-0.1524 0.6604,-0.0508 1.18533,-0.03387 0.9652,0.0508 0.99907,0.0508 0.40639,0 0.47413,0.06773 0.0677,0.06773 0.18626,0.06773 0.16934,0 0.22014,0.0508 0.0508,0.0508 0.0508,0.220133 0,0.507999 -0.23707,0.626532 -0.1016,0.06773 -0.4572,0.03387 -0.32173,-0.01693 -0.77893,0.118533 -0.42333,0.135467 -0.62653,0.254 -0.18627,0.118533 -0.47413,0.474132 -0.37254,0.457199 -0.69427,0.795865 -0.4064,0.474133 -0.6096,0.728132 -1.03293,1.337731 -1.0668,1.439331 -0.0169,0.03387 0.23707,0.423332 0.254,0.389466 0.49107,0.677332 0.1524,0.186267 0.1524,0.338666 0,0.135467 -0.1524,0.4064 -0.1524,0.287866 -0.11854,0.287866 l 0.0508,-0.01693 q 0.0508,-0.01693 0.11854,-0.03387 0.0847,-0.01693 0.15239,-0.03387 0.47414,-0.135466 0.47414,0.0508 0,0.06773 0.32173,0.524932 0.42333,0.592666 0.54187,0.761999 0.2032,0.304799 0.254,0.321733 0.0508,0.0508 0.0508,0.08467 0,0.0508 0.33866,0.507999 0.33867,0.457199 0.33867,0.524932 0,0.06773 0.0508,0.06773 0.0508,0 0.27093,0.338666 0.22013,0.338666 0.3048,0.338666 0.0677,0 0.0677,0.0508 0,0.03387 0.2032,0.06773 0.49107,0.0508 0.49107,0.474132 0,0.237066 -0.18627,0.287866 -0.16933,0.06773 -0.9652,0.1016 -1.81186,0.0508 -2.57386,0.01693 -0.47413,-0.03387 -0.59266,-0.101599 -0.11854,-0.06773 -0.0508,-0.287867 0.0339,-0.220132 0.28786,-0.270932 0.22014,-0.0508 0.22014,-0.135467 0,-0.08467 -0.22014,-0.507999 -0.16933,-0.321732 -0.64346,-1.015998 -0.4572,-0.694265 -0.59267,-0.829731 -0.0508,-0.0508 -0.52493,-0.660399 -0.42333,-0.575732 -0.4572,-0.575732 -0.0508,0 -0.0847,0.118533 -0.0339,0.1016 -0.27093,0.372532 -1.81186,2.09973 -1.81186,2.269063 0,0.01693 -0.0847,0.220132 -0.254,0.4572 0.5588,0.491066 0.37253,0 0.42333,0.0508 0.0677,0.06773 0.0847,0.304799 0.0169,0.237067 -0.0339,0.372533 -0.0847,0.220133 -0.4572,0.254 -0.37253,0.0508 -1.94733,0.01693 -0.60959,-0.01693 -1.42239,-0.01693 -0.3556,0.01693 -0.49107,-0.03387 -0.13547,-0.0508 -0.16933,-0.2032 -0.0339,-0.118533 -0.0169,-0.338666 0.0339,-0.220133 0.0847,-0.270932 l 0.3556,-0.06773 q 0.89747,-0.118533 1.49013,-0.829731 0.0339,-0.03387 0.37253,-0.4064 0.4572,-0.507999 0.64347,-0.761998 0.3048,-0.440266 0.74506,-0.931332 0.27094,-0.304799 0.82974,-1.083731 L 113.47853,92.09503 113.36,91.908764 q -0.0339,-0.0508 -0.0508,-0.08467 -0.0169,-0.0508 -0.0169,-0.06773 v -0.03387 q 0.0169,0 0,-0.01693 -0.0169,-0.03387 -0.0508,-0.06773 -0.0339,-0.0508 -0.0847,-0.1016 -0.16933,-0.2032 -0.22013,-0.338666 -0.0677,-0.135466 -0.18627,-0.253999 l -0.11853,-0.118534 0.1524,-0.304799 q 0.16933,-0.338666 0.1524,-0.406399 -0.0169,-0.118533 -0.38947,-0.1016 -0.27093,0.01693 -0.33866,0 -0.0677,-0.03387 -0.16934,-0.1524 -0.1524,-0.237066 -0.16933,-0.287866 -0.0677,-0.220133 -0.7112,-0.694265 -0.1524,-0.1016 -0.254,-0.440266 -0.0677,-0.220133 -0.1016,-0.253999 -0.0339,-0.0508 -0.11853,-0.03387 -0.11853,0.01693 -0.11853,-0.06773 0,-0.135467 -0.44027,-0.524932 -0.42333,-0.4064 -0.508,-0.3556 -0.0339,0.01693 -0.0508,-0.01693 -0.0169,-0.0508 -0.0339,-0.118533 -0.0339,-0.1524 -0.22014,-0.1524 -0.33866,0 -0.33866,-0.406399 0,-0.220133 0.13546,-0.287866 0.13547,-0.06773 0.69427,-0.135467 z m 13.69695,-0.169333 q 0.1016,-0.118533 0.1524,-0.118533 0.0677,0 0.32174,0.135467 0.28786,0.152399 0.88053,0.186266 0.6096,0.01693 2.23519,-0.01693 1.778,-0.06773 2.1336,0 0.37253,0.0508 0.508,0 0.1016,-0.0508 0.508,-0.01693 0.4064,0.03387 0.7112,0.03387 0.47413,0 0.89746,0.338666 0.23707,0.169333 0.27093,0.1524 0.0339,-0.01693 0.0677,-0.2032 0.0339,-0.203199 0.1016,-0.253999 0.0847,-0.0508 0.32173,-0.01693 0.254,0.03387 0.508,-0.03387 0.27093,-0.06773 0.49106,-0.06773 0.22014,0 0.42334,-0.06773 0.3048,-0.101599 0.45719,-0.118533 0.254,-0.03387 0.37254,0.1016 0.1016,0.135466 0.1016,0.186266 0,0.08467 0.1524,0.372533 0.1524,0.287866 0.18626,0.287866 0.0339,0 0.0339,0.06773 0,0.06773 0.11853,0.372533 0.13547,0.287866 0.2032,0.372532 0.0508,0.08467 0.0339,0.08467 -0.0169,0 0.0169,0.1524 0.0508,0.152399 0.11854,0.321732 0.0847,0.169333 0.11853,0.186267 0.2032,0.169333 0.13546,0.440265 -0.0339,0.135467 -0.32173,0.3048 -0.28786,0.169333 -0.5588,0.186266 -0.23706,0.01693 -0.38946,-0.118533 -0.11854,-0.1016 -0.27094,-0.440266 -0.13546,-0.287866 -0.18626,-0.287866 -0.0339,0 -0.28787,-0.253999 -0.27093,-0.270933 -0.52493,-0.440266 l -0.27093,-0.169333 h -1.27 -1.25306 l -0.0339,0.203199 q -0.0339,0.2032 -0.0339,1.032932 0.0169,0.829731 0.0677,1.049864 0.0677,0.3048 0.1016,1.134531 0.0339,0.812799 0,0.897465 -0.0339,0.0508 -0.3556,0.3048 -0.28787,0.220133 -0.28787,0.270933 0,0.03387 0.3556,0.152399 0.37253,0.118533 0.4064,0.186267 0.0339,0.06773 0.0339,0.237066 0,0.169333 -0.0339,0.186266 -0.0677,0.03387 -0.0339,0.321733 0.0339,0.287866 -0.0339,0.355599 -0.0169,0.01693 -0.0339,0.0508 0,0.03387 0.0169,0.0508 0.0508,0.0508 0.0508,0.643465 0.0169,0.677332 0.0508,0.863599 0.0508,0.169333 0.254,0.372532 0.23707,0.237066 0.23707,0.3048 0,0.152399 0.47413,0.304799 0.1016,0.03387 0.33867,0.1524 0.13546,0.118533 0.1524,0.558799 0.0339,0.423332 -0.1016,0.558799 -0.22014,0.220132 -1.15147,0.253999 -0.79586,0.01693 -2.48919,-0.03387 -1.6764,-0.03387 -1.94733,-0.08467 -0.44027,-0.08467 -0.5588,-0.287866 -0.11854,-0.2032 0.0339,-0.643466 0.0847,-0.253999 0.13547,-0.321732 0.0677,-0.06773 0.18627,-0.06773 0.23706,0 0.3048,-0.2032 0.0169,-0.08467 0.13546,-0.270933 0.1016,-0.135466 0.1016,-0.186266 0,-0.06773 0.2032,-0.237066 0.3048,-0.287866 0.22014,-0.728132 -0.0508,-0.237066 0,-0.711199 0.0847,-0.728132 0.0339,-1.253064 l -0.0508,-0.338666 0.4064,-0.474133 q 0.4064,-0.507999 0.4064,-0.575732 0,-0.08467 -0.11853,-0.135466 -0.11854,-0.06773 -0.27094,-0.06773 -0.1524,0 -0.3048,-0.0508 -0.32173,-0.08467 -0.25399,-0.660399 0.0339,-0.372533 0.0339,-1.59173 0,-1.337731 0.0169,-1.405464 l 0.0169,-0.118533 h -1.13453 -1.13453 l -0.33867,0.186266 q -0.28787,0.169333 -0.62653,0.507999 -0.28787,0.270933 -0.5588,0.677332 -0.27093,0.389466 -0.23707,0.474133 0.0339,0.08467 -0.1016,0.135466 -0.13546,0.06773 -0.42333,-0.03387 -0.3048,-0.101599 -0.44026,-0.203199 -0.11854,-0.1016 -0.0847,-0.406399 0.0339,-0.3048 0.1016,-0.440266 0.1016,-0.186267 0.13546,-0.372533 0.0847,-0.338666 0.23707,-0.745065 0.18627,-0.474132 0.18627,-0.524932 0,-0.03387 0.13546,-0.2032 0.13547,-0.169333 0.13547,-0.253999 0,-0.186267 0.22013,-0.4572 z"
             id="text26"
             aria-label="Text" /></g><path
           id="rect1"
           style="opacity:1;fill:#f1efb8;stroke-width:0.447068;stroke-linecap:round"
           d="m 101.37823,94.849396 h 68.00864 v 18.135634 h -68.00864 z" /></g><text
         xml:space="preserve"
         style="font-size:25.4px;font-family:'the rum is gone';-inkscape-font-specification:'the rum is gone, Normal';letter-spacing:1.36436px;white-space:pre;inline-size:303.936;display:inline;opacity:1;fill:#bf2231;fill-opacity:1;stroke:#000000;stroke-width:1.05833;stroke-linecap:round;stroke-dasharray:none;stroke-opacity:1"
         x="157.64467"
         y="34.482716"
         id="text3"
         transform="matrix(0.61352343,0,0,1.6299296,-13.572186,63.90993)"><tspan
           x="157.64467"
           y="34.482716"
           id="tspan1">MEDIEVAL mATH</tspan></text></g></g></svg>
