<?xml version="1.0" encoding="UTF-8" standalone="no"?>
<!-- Created with Inkscape (http://www.inkscape.org/) -->

<svg
   width="210mm"
   height="297mm"
   viewBox="0 0 210 297"
   version="1.1"
   id="svg1"
   inkscape:version="1.3.2 (091e20e, 2023-11-25, custom)"
   sodipodi:docname="Hat.svg"
   xmlns:inkscape="http://www.inkscape.org/namespaces/inkscape"
   xmlns:sodipodi="http://sodipodi.sourceforge.net/DTD/sodipodi-0.dtd"
   xmlns="http://www.w3.org/2000/svg"
   xmlns:svg="http://www.w3.org/2000/svg">
  <sodipodi:namedview
     id="namedview1"
     pagecolor="#ffffff"
     bordercolor="#000000"
     borderopacity="0.25"
     inkscape:showpageshadow="2"
     inkscape:pageopacity="0.0"
     inkscape:pagecheckerboard="0"
     inkscape:deskcolor="#d1d1d1"
     inkscape:document-units="mm"
     inkscape:zoom="0.72782688"
     inkscape:cx="396.38547"
     inkscape:cy="561.25984"
     inkscape:window-width="1920"
     inkscape:window-height="1094"
     inkscape:window-x="-11"
     inkscape:window-y="-11"
     inkscape:window-maximized="1"
     inkscape:current-layer="layer1" />
  <defs
     id="defs1" />
  <g
     inkscape:label="Layer 1"
     inkscape:groupmode="layer"
     id="layer1">
    <g
       id="g2"
       transform="matrix(2.6363106,0,0,2.5528607,-125.71159,-255.9657)">
      <g
         inkscape:label="Hat"
         id="layer1-7"
         transform="matrix(0.55963526,0,0,0.48789201,46.220515,77.18825)">
        <path
           style="fill:#c8ab37;stroke-width:0.347192"
           d="m 41.983459,78.977091 c -4.368045,61.191859 -4.368045,62.049749 -4.368045,62.049749 l 28.392248,-1.14376 0.364036,-0.28609 v 0.57184 -0.28605"
           id="path8-7"
           inkscape:label="HatCenter" />
        <ellipse
           style="fill:#786721;fill-rule:evenodd;stroke-width:0.250639"
           id="path11"
           cx="54.825008"
           cy="154.18874"
           rx="25.490206"
           ry="17.251627"
           inkscape:label="Brim" />
        <path
           style="fill:#2b2200;stroke-width:0.222422"
           id="path29-8"
           d="m 41.303159,117.34631 c 0.304675,-0.98648 0.767251,-1.71139 1.224233,-2.40569 0.34834,-0.58876 0.77785,-0.84387 1.180954,-1.22104 0.455361,-0.35098 0.903649,-0.72719 1.355571,-1.09258 0.411945,-0.36985 0.8653,-0.40152 1.298424,-0.5957 0.43315,-0.17626 0.867011,-0.33963 1.305841,-0.45072 0.601999,-0.14499 1.198258,-0.34633 1.803534,-0.44056 0.522769,-0.0707 1.046918,-0.0782 1.570674,-0.0795 0.460193,-0.18393 0.91627,-0.18125 1.381065,-0.10777 0.409617,0.059 0.819931,0.0934 1.230558,0.10391 0.491144,-0.0185 0.976841,-0.004 1.449432,0.27924 1.030559,0.49515 2.940961,2.89616 -0.550632,-1.04017 0.390857,0.43595 0.616431,1.19099 0.851052,1.91772 0.191947,0.68941 0.368419,1.39869 0.518206,2.12817 0.09168,0.45888 0.04641,0.23192 0.135899,0.68092 0,0 2.140636,1.96834 2.140636,1.96834 v 0 c -0.0855,-0.45842 -0.03984,-0.23205 -0.13684,-0.67919 -0.134795,-0.7673 -0.330821,-1.48177 -0.506244,-2.2146 -0.222246,-0.75 -0.446757,-1.60132 -0.811352,-2.10372 -1.18276,-1.37249 -2.18788,-2.86361 -3.50261,-3.47486 -0.492886,-0.19199 -0.989553,-0.21946 -1.491065,-0.21247 -0.408691,-0.024 -0.817154,-0.0589 -1.224937,-0.11972 -0.46664,-0.0425 -0.924965,0.0534 -1.389205,0.13665 -0.523647,0.0148 -1.047704,0.0387 -1.56978,0.12543 -0.606283,0.11161 -1.204936,0.3212 -1.809726,0.45731 -0.446023,0.11866 -0.890517,0.26172 -1.329826,0.45684 -0.44738,0.15722 -0.895488,0.31282 -1.314339,0.68167 -0.453635,0.37235 -0.910987,0.72496 -1.365403,1.09367 -0.42928,0.34761 -0.840109,0.74227 -1.202016,1.33104 -0.471563,0.74127 -0.936207,1.52432 -1.283603,2.50879 z"
           inkscape:label="Stripe" />
        <path
           style="fill:#2b2200;stroke-width:0.260429"
           id="path30"
           d="m 41.255713,126.42066 c 0.382237,-1.07799 0.962569,-1.87015 1.535885,-2.62886 0.437016,-0.64338 0.975866,-0.92215 1.481588,-1.33431 0.57128,-0.38354 1.133688,-0.79465 1.700655,-1.19394 0.516813,-0.40416 1.085579,-0.43877 1.628962,-0.65096 0.543416,-0.19261 1.087725,-0.37114 1.638268,-0.49253 0.755248,-0.15845 1.503295,-0.37846 2.262655,-0.48143 0.655849,-0.0773 1.313432,-0.0855 1.970518,-0.0869 0.577345,-0.20099 1.149525,-0.19806 1.73264,-0.11777 0.513893,0.0645 1.028661,0.10207 1.543821,0.11355 0.616173,-0.0202 1.225512,-0.004 1.818411,0.30515 1.292907,0.54108 3.689638,3.16483 -0.690805,-1.13667 0.490355,0.47639 0.773355,1.30148 1.067702,2.09563 0.240811,0.75336 0.462207,1.52844 0.650125,2.32559 0.115013,0.50145 0.05822,0.25344 0.170494,0.74409 0,0 2.685576,2.15094 2.685576,2.15094 v 0 c -0.107262,-0.50095 -0.04999,-0.25358 -0.171677,-0.7422 -0.16911,-0.83848 -0.415037,-1.61923 -0.635116,-2.42004 -0.278823,-0.81958 -0.560488,-1.74987 -1.017897,-2.29888 -1.483853,-1.49981 -2.744844,-3.12926 -4.394264,-3.79722 -0.618359,-0.2098 -1.241461,-0.23982 -1.870643,-0.23218 -0.51273,-0.0262 -1.025177,-0.0644 -1.536768,-0.13082 -0.585432,-0.0464 -1.160432,0.0584 -1.742853,0.14932 -0.656949,0.0162 -1.314416,0.0423 -1.969396,0.13707 -0.760624,0.12196 -1.511673,0.351 -2.270424,0.49973 -0.559566,0.12967 -1.117216,0.286 -1.668357,0.49922 -0.56127,0.17181 -1.123453,0.34184 -1.648929,0.74491 -0.569116,0.40689 -1.142897,0.79221 -1.712992,1.19513 -0.53856,0.37985 -1.053975,0.81113 -1.50801,1.45452 -0.59161,0.81003 -1.174537,1.66572 -1.61037,2.74152 z"
           inkscape:label="Stripe" />
        <path
           style="fill:#2b2200;stroke-width:0.337372"
           id="path32"
           d="m 40.802412,139.18147 c 0.441547,-1.56608 1.111929,-2.71689 1.774205,-3.8191 0.504827,-0.9347 1.12729,-1.33968 1.711485,-1.93844 0.659925,-0.5572 1.309602,-1.15445 1.964543,-1.73451 0.597007,-0.58714 1.254027,-0.63743 1.881727,-0.94568 0.627738,-0.27984 1.256505,-0.5392 1.892476,-0.71554 0.872438,-0.23019 1.736559,-0.54981 2.613747,-0.69941 0.757617,-0.11221 1.517237,-0.1242 2.276282,-0.12624 0.666931,-0.292 1.327896,-0.28775 2.001492,-0.17111 0.593632,0.0936 1.188278,0.1483 1.783374,0.16497 0.711783,-0.0294 1.415674,-0.007 2.100571,0.44332 1.493527,0.78605 4.262155,4.59773 -0.797996,-1.65132 0.566443,0.69207 0.893356,1.89073 1.233377,3.04446 0.278176,1.09445 0.533927,2.22044 0.751004,3.37852 0.132859,0.72849 0.06725,0.36819 0.19695,1.08098 0,0 3.102293,3.1248 3.102293,3.1248 v 0 c -0.123907,-0.72776 -0.05775,-0.36839 -0.198316,-1.07823 -0.195351,-1.21813 -0.479438,-2.35235 -0.733667,-3.51575 -0.322087,-1.19065 -0.647458,-2.54213 -1.175842,-3.33972 -1.714101,-2.17887 -3.170759,-4.54606 -5.076118,-5.51645 -0.714308,-0.3048 -1.434096,-0.34839 -2.160908,-0.3373 -0.59229,-0.038 -1.184253,-0.0935 -1.775226,-0.19005 -0.676273,-0.0675 -1.340495,0.0849 -2.013289,0.21694 -0.758888,0.0236 -1.518373,0.0615 -2.274986,0.19912 -0.878649,0.17717 -1.746237,0.50991 -2.622722,0.72597 -0.646394,0.18839 -1.290574,0.4155 -1.927235,0.72526 -0.648361,0.2496 -1.297777,0.4966 -1.904792,1.08217 -0.657425,0.59111 -1.320239,1.15089 -1.978793,1.73624 -0.622128,0.55182 -1.217521,1.17839 -1.742007,2.11308 -0.68341,1.17678 -1.35679,2.41989 -1.86025,3.98277 z"
           inkscape:label="Stripe" />
        <path
           style="fill:#ff0000;fill-rule:evenodd;stroke-width:0.264583"
           id="path39-5"
           sodipodi:type="arc"
           sodipodi:cx="41.25993"
           sodipodi:cy="81.101982"
           sodipodi:rx="2.9775205"
           sodipodi:ry="6.5221882"
           sodipodi:start="0"
           sodipodi:end="0.55707434"
           sodipodi:arc-type="slice"
           d="m 44.23745,81.101982 a 2.9775205,6.5221882 0 0 1 -0.450184,3.448315 L 41.25993,81.101982 Z"
           inkscape:label="HatflagPiece" />
        <path
           style="fill:#ff0000;fill-rule:evenodd;stroke-width:1.5143"
           id="path40-0"
           sodipodi:type="arc"
           sodipodi:cx="32.752728"
           sodipodi:cy="79.684128"
           sodipodi:rx="12.051869"
           sodipodi:ry="9.1796112"
           sodipodi:start="0"
           sodipodi:end="0.55707434"
           sodipodi:arc-type="slice"
           d="m 44.804597,79.684128 a 12.051869,9.1796112 0 0 1 -1.822176,4.853308 L 32.752728,79.684128 Z"
           inkscape:label="HatFlag" />
      </g>
      <text
         xml:space="preserve"
         style="font-style:italic;font-weight:bold;font-stretch:condensed;font-size:7.05556px;font-family:Arial;-inkscape-font-specification:'Arial Bold Italic Condensed';text-align:center;letter-spacing:1.32292px;writing-mode:lr-tb;direction:ltr;text-anchor:middle;fill:#000000;fill-opacity:1;stroke-width:0.264583"
         x="76.910088"
         y="167.59991"
         id="text2"
         inkscape:label="HatPrice"><tspan
           sodipodi:role="line"
           id="tspan2"
           style="font-style:normal;font-variant:normal;font-weight:normal;font-stretch:normal;font-family:'High Tower Text';-inkscape-font-specification:'High Tower Text';writing-mode:lr-tb;direction:ltr;fill:#000000;fill-opacity:1;stroke-width:0.264583"
           x="77.571548"
           y="167.59991">50 Coins</tspan></text>
    </g>
  </g>
</svg>
