<?xml version="1.0" encoding="UTF-8" standalone="no"?>
<!-- Created with Inkscape (http://www.inkscape.org/) -->

<svg
   width="210mm"
   height="297mm"
   viewBox="0 0 210 297"
   version="1.1"
   id="svg1"
   xml:space="preserve"
   inkscape:version="1.3.2 (091e20e, 2023-11-25, custom)"
   sodipodi:docname="Kite-Helmet.svg"
   xmlns:inkscape="http://www.inkscape.org/namespaces/inkscape"
   xmlns:sodipodi="http://sodipodi.sourceforge.net/DTD/sodipodi-0.dtd"
   xmlns:xlink="http://www.w3.org/1999/xlink"
   xmlns="http://www.w3.org/2000/svg"
   xmlns:svg="http://www.w3.org/2000/svg"><sodipodi:namedview
     id="namedview1"
     pagecolor="#ffffff"
     bordercolor="#000000"
     borderopacity="0.25"
     inkscape:showpageshadow="2"
     inkscape:pageopacity="0.0"
     inkscape:pagecheckerboard="0"
     inkscape:deskcolor="#d1d1d1"
     inkscape:document-units="mm"
     inkscape:zoom="0.72426347"
     inkscape:cx="370.03109"
     inkscape:cy="523.98059"
     inkscape:window-width="1920"
     inkscape:window-height="1009"
     inkscape:window-x="-8"
     inkscape:window-y="-8"
     inkscape:window-maximized="1"
     inkscape:current-layer="layer1" /><defs
     id="defs1"><inkscape:path-effect
       effect="bspline"
       id="path-effect4"
       is_visible="true"
       lpeversion="1.3"
       weight="33.333333"
       steps="2"
       helper_size="0"
       apply_no_weight="true"
       apply_with_weight="true"
       only_selected="false"
       uniform="false" /><inkscape:path-effect
       effect="bspline"
       id="path-effect3"
       is_visible="true"
       lpeversion="1.3"
       weight="33.333333"
       steps="2"
       helper_size="0"
       apply_no_weight="true"
       apply_with_weight="true"
       only_selected="false"
       uniform="false" /><clipPath
       clipPathUnits="userSpaceOnUse"
       id="clipPath5"><use
         x="0"
         y="0"
         xlink:href="#g4"
         id="use5" /></clipPath><inkscape:path-effect
       effect="skeletal"
       id="path-effect5"
       is_visible="true"
       lpeversion="1"
       pattern="M 0,4.9921382 C 0,2.2364779 2.2364779,0 4.9921382,0 c 2.7556604,0 4.9921383,2.2364779 4.9921383,4.9921382 0,2.7556604 -2.2364779,4.9921383 -4.9921383,4.9921383 C 2.2364779,9.9842765 0,7.7477986 0,4.9921382 Z"
       copytype="single_stretched"
       prop_scale="1"
       scale_y_rel="false"
       spacing="0"
       normal_offset="0"
       tang_offset="0"
       prop_units="false"
       vertical_pattern="false"
       hide_knot="false"
       fuse_tolerance="0" /></defs><g
     inkscape:label="Layer 1"
     inkscape:groupmode="layer"
     id="layer1"><g
       id="g5"
       clip-path="url(#clipPath5)"
       style="fill:#502d16"><g
         inkscape:label="Clip"
         id="g4"
         style="fill:#502d16" /></g><path
       id="path4"
       style="opacity:1;fill:#67481f;fill-opacity:1;stroke-width:0.264583"
       inkscape:path-effect="#path-effect4"
       inkscape:original-d="m 80.369002,106.30627 c -3.774908,23.2583 -7.549739,46.51613 -11.324723,69.7749 11.446726,-2.43547 22.89299,-4.87084 34.339481,-7.30626 8.76771,-5.60159 17.53488,-11.20284 26.30258,-16.80443 1.46129,-5.60159 2.92251,-11.20295 4.38377,-16.80443 1.70483,-6.81933 3.40959,-13.63838 5.11439,-20.45756 0,-1.09597 0,-2.19189 0,-3.28783 -6.33223,-0.36532 -12.66421,-0.73063 -18.99631,-1.09594 -10.22899,-1.70483 -20.457565,-3.40959 -30.686346,-5.11439 -3.044341,0.36532 -6.08856,0.73063 -9.132842,1.09594 z m -16.439113,17.90037 c 1.948339,-6.94096 3.896677,-13.88192 5.845019,-20.82288 1.948378,-4.262076 3.896677,-8.523982 5.845019,-12.785975 2.922566,-3.166115 5.845016,-6.332103 8.767526,-9.498155 3.044341,-2.67902 6.08856,-5.357934 9.13284,-8.036901 3.28789,-1.339509 6.575647,-2.678965 9.863467,-4.01845 3.28789,1.095963 6.57565,2.191883 9.86347,3.287824 4.87095,3.409662 9.7417,6.819188 14.61255,10.228781 3.40966,4.383852 6.81919,8.767527 10.22878,13.151292 0.97419,4.140305 1.94834,8.280444 2.92251,12.420664 0,2.43547 0,4.87085 0,7.30627 -1.70483,6.9411 -3.4096,13.88192 -5.11439,20.82288 -1.33951,3.16612 -2.67897,6.33211 -4.01845,9.49815 2.67902,2.67903 5.35793,5.35794 8.0369,8.03691 3.16611,1.58305 6.3321,3.16605 9.49815,4.74907 1.21774,2.3137 2.43543,4.62731 3.65314,6.94096 1.09596,1.94838 2.19188,3.89668 3.28782,5.84502 -3.40966,5.72336 -6.81919,11.4465 -10.22878,17.16974 -7.06287,4.6274 -14.12546,9.25461 -21.18819,13.88192 -10.22899,1.70483 -20.45757,3.4096 -30.686348,5.11439 -5.236269,-2.55724 -10.472325,-5.11439 -15.708487,-7.67158 -2.435474,-3.16612 -4.87085,-6.33211 -7.306273,-9.49816 0.243546,-4.50562 0.487084,-9.01107 0.730625,-13.5166 1.095965,-2.67902 2.191883,-5.35794 3.287824,-8.0369 0.365321,-1.09597 0.730628,-2.19189 1.095941,-3.28783 2.557248,1.09597 5.114391,2.19189 7.671586,3.28783 5.601589,-0.36532 11.202833,-0.73062 16.804422,-1.09595 2.31371,-1.46128 4.62727,-2.92248 6.94097,-4.38376 5.23626,-2.80079 10.47232,-5.60147 15.70848,-8.40221 2.07016,-2.43548 4.14022,-4.87085 6.21033,-7.30628 0.60887,-0.97419 1.21772,-1.94833 1.82657,-2.9225 2.43548,-10.35077 4.87085,-20.70111 7.30628,-31.05167 -0.24355,-0.85241 -0.48709,-1.70479 -0.73063,-2.55719 -9.49835,-0.85242 -18.99631,-1.7048 -28.49446,-2.5572 -6.81933,-1.21773 -13.638381,-2.43542 -20.457569,-3.65313 -4.018531,0.24354 -8.036901,0.48708 -12.05535,0.73062 -1.461286,2.43548 -2.922481,4.8708 -4.383766,7.30628 -2.191925,3.77498 -4.383763,7.54981 -6.575644,11.32472 -0.36532,2.55725 -0.730628,5.11439 -1.095941,7.67159 1.217737,4.50562 2.435424,9.01107 3.653137,13.5166 1.095962,4.87095 2.191882,9.7417 3.28782,14.61255 1.339512,1.8266 2.678968,3.65313 4.018452,5.4797 1.948379,0.60887 3.896678,1.21771 5.845019,1.82657 -0.60887,-9.74189 -1.217713,-19.48339 -1.826569,-29.22509 0,-3.16612 0,-6.3321 0,-9.49816 2.679018,-7.54996 5.357871,-15.09945 8.036899,-22.64944 -2.435479,-0.24355 -4.870798,-0.48708 -7.306271,-0.73063 -5.601588,6.33223 -11.202953,12.66421 -16.804428,18.99631 z"
       d="m 80.003689,117.75276 c -3.409595,11.81181 -7.184426,35.06964 -3.348555,45.48129 3.835871,10.41165 15.282135,7.97628 25.389236,3.95777 10.1071,-4.0185 18.87427,-9.61975 23.98876,-15.22134 5.1145,-5.60159 6.57572,-11.20295 8.15877,-17.41335 1.58304,-6.21041 3.2878,-13.02946 4.1402,-16.98703 0.8524,-3.95758 0.8524,-5.0535 -2.31371,-5.78413 -3.16612,-0.73063 -9.4981,-1.09594 -17.77864,-2.13101 -8.28055,-1.03507 -18.509124,-2.73983 -25.145686,-3.40957 -6.636561,-0.66974 -9.68078,-0.30443 -13.090375,11.50737 z m -12.298893,-0.18265 c -1.826567,-0.30443 0.121772,-7.24539 2.070131,-12.84691 1.948359,-5.601516 3.896659,-9.863421 6.332113,-13.577475 2.435454,-3.714054 5.357904,-6.880042 8.341329,-9.802579 2.983425,-2.922536 6.027644,-5.60145 9.193729,-7.610689 3.166084,-2.009239 6.453842,-3.348695 9.741692,-3.470455 3.28786,-0.121759 6.57562,0.974161 10.655,3.226962 4.07939,2.252802 8.95014,5.662327 13.0904,9.559049 4.14025,3.896722 7.54978,8.2804 9.74167,12.542434 2.19189,4.262034 3.16604,8.402173 3.65313,11.690013 0.48708,3.28785 0.48708,5.72323 -0.36534,10.41149 -0.85241,4.68826 -2.55717,11.62908 -4.07933,16.68262 -1.52215,5.05354 -2.86161,8.21953 -2.19184,11.14206 0.66977,2.92254 3.34868,5.60145 6.27122,7.73246 2.92254,2.13101 6.08853,3.71401 8.28042,5.66237 2.1919,1.94836 3.40959,4.26197 4.56643,6.39298 1.15683,2.13102 2.25275,4.07932 1.09589,7.91517 -1.15686,3.83585 -4.56639,9.55899 -9.80262,14.73431 -5.23623,5.17532 -12.29882,9.80253 -20.94468,12.9686 -8.64586,3.16607 -18.87444,4.87083 -26.606963,4.44461 -7.732522,-0.42622 -12.968581,-2.98337 -16.804399,-5.84502 -3.835818,-2.86166 -6.271194,-6.02765 -7.367132,-9.86348 -1.095938,-3.83584 -0.8524,-8.34129 -0.182648,-11.93357 0.669752,-3.59227 1.765674,-6.27119 2.496305,-8.15865 0.73063,-1.88747 1.095936,-2.98339 2.557217,-2.98338 1.461281,2e-5 4.018424,1.09594 8.097815,1.46125 4.079392,0.36531 9.680636,0 13.638284,-0.9133 3.957651,-0.91331 6.271211,-2.3745 10.046191,-4.50553 3.77498,-2.13104 9.01104,-4.93172 12.6642,-7.54983 3.65316,-2.61811 5.72322,-5.05348 7.06271,-6.75829 1.33949,-1.70481 1.94833,-2.67895 3.4705,-8.34142 1.52217,-5.66247 3.95754,-16.01281 5.05348,-21.6143 1.09594,-5.60148 0.8524,-6.45386 -4.01854,-7.30627 -4.87095,-0.85241 -14.36891,-1.70479 -22.52765,-2.73986 -8.15874,-1.03506 -14.977791,-2.25275 -20.39665,-2.73983 -5.41886,-0.48709 -9.43723,-0.24355 -12.177098,1.09596 -2.739868,1.33951 -4.20106,3.77483 -6.027666,6.88006 -1.826605,3.10523 -4.018442,6.88006 -5.297044,10.04614 -1.278602,3.16608 -1.643908,5.72322 -1.217697,9.25463 0.426211,3.53141 1.6439,8.03686 2.800737,12.7251 1.156837,4.68824 2.252755,9.55899 3.47048,12.90772 1.217725,3.34872 2.557181,5.17525 4.201114,6.39297 1.643932,1.21772 3.59223,1.82656 4.261967,-2.73995 0.669737,-4.56652 0.06089,-14.30802 -0.243536,-20.76193 -0.304428,-6.45391 -0.304428,-9.61989 1.035081,-14.9779 1.339509,-5.35801 4.018361,-12.9075 4.140136,-16.80427 0.121775,-3.89677 -2.313544,-4.1403 -6.332074,-1.09596 -4.018531,3.04434 -9.619897,9.37632 -11.446464,9.07189 z"
       transform="matrix(1.2874997,0,0,1.1567419,-35.312762,-5.8971739)" /><circle
       id="path5"
       style="fill:#ff0000;stroke:#000000;stroke-width:0.264583"
       cx="73.793358"
       cy="124.93727"
       r="0.048659422" /><circle
       id="path6"
       style="fill:#ff0000;stroke:#000000;stroke-width:0.264583"
       cx="96.808113"
       cy="86.944649"
       r="0.048659422" /><circle
       id="path7"
       style="fill:#2b2200;stroke:#000000;stroke-width:0.264583"
       cx="144.29889"
       cy="246.95203"
       r="0.048659422" /><path
       id="path8"
       style="fill:#2b2200;stroke:#000000;stroke-width:0.264583"
       d="m 122.06342,131.51292 a 0.04865942,0.04865942 0 0 1 -0.0487,0.0487 0.04865942,0.04865942 0 0 1 -0.0487,-0.0487 0.04865942,0.04865942 0 0 1 0.0487,-0.0487 0.04865942,0.04865942 0 0 1 0.0487,0.0487 z" /><circle
       id="path11"
       style="fill:#cf1224;stroke:#000000;stroke-width:0.264583"
       cx="120.18819"
       cy="125.30258"
       r="0.048659422" /><circle
       id="path12"
       style="fill:#cf1225;stroke:#000000;stroke-width:0.264583;fill-opacity:0.27058825"
       cx="113.97786"
       cy="134.80074"
       r="0.048659422" /></g></svg>
